<svg width="341" height="284" viewBox="0 0 341 284" fill="none" xmlns="http://www.w3.org/2000/svg">
<defs>
    <filter id="filter0_f_102_37" x="192.487" y="177" width="23" height="21" filterUnits="userSpaceOnUse" color-interpolation-filters="sRGB">
        <feFlood flood-opacity="0" result="BackgroundImageFix"/>
        <feBlend mode="normal" in="SourceGraphic" in2="BackgroundImageFix" result="shape"/>
        <feGaussianBlur stdDeviation="1" result="effect1_foregroundBlur_102_37"/>
    </filter>
    <linearGradient id="paint0_linear_102_37" x1="64.9868" y1="0" x2="64.9868" y2="21" gradientUnits="userSpaceOnUse">
        <stop stop-color="#6B38FC"/>
        <stop offset="1" stop-color="#9F7EFD"/>
    </linearGradient>
    <linearGradient id="paint1_linear_102_37" x1="203.987" y1="179" x2="203.987" y2="196" gradientUnits="userSpaceOnUse">
        <stop stop-color="#6B38FC"/>
        <stop offset="1" stop-color="#9F7EFD"/>
    </linearGradient>
    <linearGradient id="paint2_linear_102_37" x1="162.496" y1="23.8661" x2="167.158" y2="41.2541" gradientUnits="userSpaceOnUse">
        <stop stop-color="#6B38FC"/>
        <stop offset="1" stop-color="#9F7EFD"/>
    </linearGradient>
    <linearGradient id="paint3_linear_102_37" x1="8.7495" y1="165.064" x2="15.0055" y2="179.8" gradientUnits="userSpaceOnUse">
        <stop stop-color="#6B38FC"/>
        <stop offset="1" stop-color="#9F7EFD"/>
    </linearGradient>
    <linearGradient id="paint4_linear_102_37" x1="158.432" y1="86.4749" x2="145.766" y2="83.5505" gradientUnits="userSpaceOnUse">
        <stop stop-color="#6B38FC"/>
        <stop offset="1" stop-color="#9F7EFD"/>
    </linearGradient>
    <linearGradient id="paint5_linear_102_37" x1="143.382" y1="103.956" x2="209.424" y2="295.168" gradientUnits="userSpaceOnUse">
        <stop stop-color="white"/>
        <stop offset="1" stop-color="#F7F7F7" stop-opacity="0.8"/>
    </linearGradient>
</defs>
<path d="M110.151 210.951C103.86 210.952 97.5842 210.315 91.421 209.051C79.5263 206.601 68.233 201.824 58.19 194.996C44.2765 185.565 33.1602 172.561 26.0093 157.35C18.8584 142.138 15.937 125.281 17.5522 108.551C19.1673 91.8203 25.2594 75.8336 35.188 62.2711C45.1167 48.7085 58.5154 38.0708 73.976 31.476C79.5964 29.089 85.4401 27.2667 91.421 26.036C101.154 24.0442 111.142 23.6158 121.009 24.767C118.908 29.3619 117.301 34.1668 116.215 39.101C115.098 44.192 114.536 49.3889 114.537 54.601C114.514 68.908 118.786 82.8927 126.799 94.745C131.965 102.389 138.548 108.973 146.192 114.139C150.035 116.734 154.121 118.951 158.392 120.759C167.234 124.501 176.739 126.42 186.34 126.401C191.895 126.405 197.431 125.767 202.84 124.501C201.565 142.073 195.338 158.923 184.879 173.101C181.496 177.688 177.703 181.957 173.546 185.857C156.388 202.001 133.71 210.978 110.151 210.951V210.951Z" fill="#713FFD"/>
<path d="M64.9868 0L68.0868 7.665L76.4868 10.5L68.0868 13.335L64.9868 21L61.8868 13.335L53.4868 10.5L61.8868 7.665L64.9868 0Z" fill="url(#paint0_linear_102_37)"/>
<g filter="url(#filter0_f_102_37)">
<path d="M203.987 179L206.552 185.2L213.487 187.5L206.552 189.8L203.987 196L201.422 189.8L194.487 187.5L201.422 185.2L203.987 179Z" fill="url(#paint1_linear_102_37)"/>
</g>
<path d="M162.496 23.8661L166.806 29.5134L174.487 29.9701L168.065 34.2081L167.158 41.2541L162.848 35.6067L155.167 35.1501L161.589 30.912L162.496 23.8661Z" fill="url(#paint2_linear_102_37)"/>
<path d="M8.7495 165.064L13.3953 169.439L20.627 168.717L15.0844 173.418L15.0055 179.8L10.3597 175.424L3.128 176.146L8.67058 171.445L8.7495 165.064Z" fill="url(#paint3_linear_102_37)"/>
<path d="M158.432 86.4749L153.323 87.5121L150.299 92.8077L149.903 86.7226L145.766 83.5505L150.875 82.5133L153.899 77.2177L154.295 83.3029L158.432 86.4749Z" fill="url(#paint4_linear_102_37)"/>
<path d="M224.781 283.765C222.848 283.92 220.895 283.999 218.924 284H81.3999C71.9337 284.035 62.5536 282.201 53.7978 278.603C45.0419 275.005 37.0826 269.714 30.3765 263.032C23.6703 256.351 18.3492 248.412 14.7185 239.669C11.0877 230.927 9.21875 221.554 9.21875 212.087C9.21875 202.621 11.0877 193.248 14.7185 184.506C18.3492 175.763 23.6703 167.824 30.3765 161.143C37.0826 154.461 45.0419 149.17 53.7978 145.572C62.5536 141.974 71.9337 140.14 81.3999 140.175H132.676C149.3 103.6 187.587 78 232.16 78C291.987 78 340.487 124.115 340.487 181C340.487 237.885 291.987 284 232.16 284C229.68 284 227.22 283.922 224.781 283.765Z" fill="url(#paint5_linear_102_37)"/>
<path d="M232.159 283C239.445 283 246.726 282.302 253.8 280.926C260.693 279.585 267.473 277.584 273.952 274.978C280.313 272.42 286.447 269.254 292.186 265.568C297.869 261.917 303.213 257.725 308.069 253.107C312.925 248.49 317.333 243.411 321.171 238.009C325.045 232.557 328.372 226.728 331.06 220.686C333.798 214.532 335.9 208.093 337.309 201.547C338.754 194.831 339.487 187.917 339.487 181C339.487 174.082 338.754 167.169 337.309 160.452C335.9 153.906 333.798 147.467 331.06 141.314C328.372 135.272 325.045 129.443 321.171 123.991C317.333 118.589 312.925 113.51 308.069 108.893C303.213 104.275 297.869 100.083 292.186 96.4323C286.447 92.7461 280.313 89.5801 273.952 87.0221C267.473 84.4165 260.693 82.4154 253.8 81.0742C246.726 79.6979 239.445 79 232.159 79C210.789 79 190.149 84.9523 172.473 96.2135C163.953 101.642 156.296 108.194 149.716 115.688C143.095 123.229 137.667 131.607 133.586 140.588L133.319 141.175H132.675H81.3995C71.8259 141.175 62.5393 143.049 53.7974 146.747C49.5958 148.524 45.5432 150.724 41.7523 153.285C37.9972 155.822 34.4659 158.735 31.2567 161.945C28.0475 165.154 25.134 168.685 22.597 172.44C20.0359 176.231 17.8363 180.284 16.0591 184.485C12.3616 193.227 10.4868 202.514 10.4868 212.087C10.4868 221.661 12.3616 230.948 16.0591 239.689C17.8363 243.891 20.0359 247.944 22.597 251.735C25.134 255.49 28.0475 259.021 31.2567 262.23C34.4659 265.439 37.9972 268.353 41.7523 270.89C45.5432 273.451 49.5958 275.651 53.7974 277.428C62.5393 281.125 71.8259 283 81.3995 283H218.924C220.847 283 222.791 282.922 224.701 282.768L224.773 282.762L224.845 282.767C227.264 282.922 229.725 283 232.159 283ZM232.159 284C229.68 284 227.219 283.921 224.781 283.765C222.851 283.92 220.895 284 218.924 284H81.3995C41.6834 284 9.48682 251.803 9.48682 212.087C9.48682 172.371 41.6834 140.175 81.3995 140.175H132.675C149.3 103.595 187.585 78 232.159 78C291.987 78 340.487 124.115 340.487 181C340.487 237.885 291.987 284 232.159 284Z" fill="white" fill-opacity="0.5"/>
</svg>
