<svg width="346" height="291" viewBox="0 0 346 291" fill="none" xmlns="http://www.w3.org/2000/svg">
    <defs>
        <filter id="filter0_d_120_310" x="0.553711" y="0.932373" width="228.767" height="229.763" filterUnits="userSpaceOnUse" color-interpolation-filters="sRGB">
            <feFlood flood-opacity="0" result="BackgroundImageFix"/>
            <feColorMatrix in="SourceAlpha" type="matrix" values="0 0 0 0 0 0 0 0 0 0 0 0 0 0 0 0 0 0 127 0" result="hardAlpha"/>
            <feOffset dx="10" dy="2"/>
            <feGaussianBlur stdDeviation="15"/>
            <feColorMatrix type="matrix" values="0 0 0 0 0 0 0 0 0 0 0 0 0 0 0 0 0 0 0.25 0"/>
            <feBlend mode="normal" in2="BackgroundImageFix" result="effect1_dropShadow_120_310"/>
            <feBlend mode="normal" in="SourceGraphic" in2="effect1_dropShadow_120_310" result="shape"/>
        </filter>
        <linearGradient id="paint0_linear_120_310" x1="46.0658" y1="54.4379" x2="165.015" y2="174.095" gradientUnits="userSpaceOnUse">
            <stop stop-color="#6F7BF7"/>
            <stop offset="1" stop-color="#9F7EFD"/>
        </linearGradient>
        <linearGradient id="paint1_linear_120_310" x1="64.1799" y1="7" x2="64.1799" y2="25.9697" gradientUnits="userSpaceOnUse">
            <stop stop-color="#6F7BF7"/>
            <stop offset="1" stop-color="#9F7EFD"/>
        </linearGradient>
        <linearGradient id="paint2_linear_120_310" x1="190.192" y1="169.597" x2="190.192" y2="185.179" gradientUnits="userSpaceOnUse">
            <stop stop-color="#6F7BF7"/>
            <stop offset="1" stop-color="#9F7EFD"/>
        </linearGradient>
        <linearGradient id="paint3_linear_120_310" x1="152.663" y1="28.6869" x2="156.899" y2="44.4867" gradientUnits="userSpaceOnUse">
            <stop stop-color="#6F7BF7"/>
            <stop offset="1" stop-color="#9F7EFD"/>
        </linearGradient>
        <linearGradient id="paint4_linear_120_310" x1="12.95" y1="156.998" x2="18.6363" y2="170.392" gradientUnits="userSpaceOnUse">
            <stop stop-color="#6F7BF7"/>
            <stop offset="1" stop-color="#9F7EFD"/>
        </linearGradient>
        <linearGradient id="paint5_linear_120_310" x1="148.97" y1="85.5822" x2="137.459" y2="82.9246" gradientUnits="userSpaceOnUse">
            <stop stop-color="#6F7BF7"/>
            <stop offset="1" stop-color="#9F7EFD"/>
        </linearGradient>
        <linearGradient id="paint6_linear_120_310" x1="148.382" y1="110.956" x2="214.424" y2="302.168" gradientUnits="userSpaceOnUse">
            <stop stop-color="white"/>
            <stop offset="1" stop-color="#F7F7F7" stop-opacity="0.8"/>
        </linearGradient>
    </defs>
<g filter="url(#filter0_d_120_310)">
<path d="M105.095 198.695C99.3785 198.697 93.6761 198.119 88.0756 196.971C77.2664 194.745 67.0037 190.404 57.8773 184.199C45.2333 175.629 35.1312 163.812 28.6327 149.989C22.1343 136.165 19.4794 120.847 20.9472 105.643C22.4151 90.4393 27.9513 75.9116 36.9741 63.5868C45.997 51.2621 58.1732 41.5954 72.2231 35.6028C77.3305 33.4329 82.6411 31.7762 88.0763 30.6572C96.9207 28.8476 105.997 28.4588 114.964 29.5054C113.054 33.681 111.593 38.0475 110.605 42.5315C108.642 51.4968 108.574 60.7734 110.406 69.7665C112.116 78.1124 115.451 86.0401 120.224 93.0971C124.918 100.045 130.901 106.028 137.848 110.723C141.339 113.082 145.051 115.096 148.931 116.739C152.878 118.407 156.981 119.681 161.179 120.541C170.479 122.435 180.079 122.297 189.321 120.134C187.763 141.402 178.26 161.305 162.701 175.887C147.111 190.558 126.503 198.718 105.095 198.695V198.695Z" fill="url(#paint0_linear_120_310)"/>
</g>
<path d="M64.1799 7L66.9237 13.9239L74.3422 16.4848L66.9237 19.0457L64.1799 25.9697L61.4361 19.0457L54.0176 16.4848L61.4361 13.9239L64.1799 7Z" fill="url(#paint1_linear_120_310)"/>
<path d="M190.192 169.597L192.57 175.288L198.999 177.388L192.57 179.488L190.192 185.179L187.814 179.488L181.385 177.388L187.814 175.288L190.192 169.597Z" fill="url(#paint2_linear_120_310)"/>
<path d="M152.663 28.687L156.58 33.8184L163.56 34.2331L157.723 38.0842L156.899 44.4868L152.983 39.3558L146.003 38.9411L151.839 35.0894L152.663 28.687Z" fill="url(#paint3_linear_120_310)"/>
<path d="M12.9506 156.998L17.172 160.974L23.7431 160.32L18.7084 164.593L18.6369 170.392L14.4129 166.413L7.84235 167.068L12.877 162.795L12.9506 156.998Z" fill="url(#paint4_linear_120_310)"/>
<path d="M148.97 85.5812L144.327 86.5255L141.579 91.3375L141.219 85.808L137.459 82.9236L142.103 81.9793L144.85 77.1693L145.21 82.6988L148.97 85.5812Z" fill="url(#paint5_linear_120_310)"/>
<path d="M229.781 290.765C227.848 290.92 225.895 290.999 223.924 291H86.3999C76.9337 291.035 67.5536 289.201 58.7978 285.603C50.0419 282.005 42.0826 276.714 35.3765 270.032C28.6703 263.351 23.3492 255.412 19.7185 246.669C16.0877 237.927 14.2187 228.554 14.2188 219.087C14.2187 209.621 16.0877 200.248 19.7185 191.506C23.3492 182.763 28.6703 174.824 35.3765 168.143C42.0826 161.461 50.0419 156.17 58.7978 152.572C67.5536 148.974 76.9337 147.14 86.3999 147.175H137.676C154.3 110.6 192.587 85 237.16 85C296.987 85 345.487 131.115 345.487 188C345.487 244.885 296.987 291 237.16 291C234.68 291 232.22 290.922 229.781 290.765Z" fill="url(#paint6_linear_120_310)"/>
<path d="M237.16 290C244.446 290 251.727 289.302 258.801 287.926C265.694 286.585 272.474 284.584 278.953 281.978C285.313 279.42 291.448 276.254 297.186 272.568C302.87 268.917 308.214 264.725 313.07 260.107C317.926 255.49 322.333 250.411 326.172 245.009C330.046 239.557 333.373 233.728 336.061 227.686C338.798 221.532 340.9 215.093 342.309 208.547C343.755 201.831 344.488 194.917 344.488 188C344.488 181.082 343.755 174.169 342.309 167.452C340.9 160.906 338.798 154.467 336.061 148.314C333.373 142.272 330.046 136.443 326.172 130.991C322.333 125.589 317.926 120.51 313.07 115.893C308.214 111.275 302.87 107.083 297.186 103.432C291.448 99.7461 285.313 96.5801 278.953 94.0221C272.474 91.4165 265.694 89.4154 258.801 88.0742C251.727 86.6979 244.446 86 237.16 86C215.789 86 195.15 91.9523 177.474 103.214C168.953 108.642 161.297 115.194 154.717 122.688C148.095 130.229 142.668 138.607 138.586 147.588L138.32 148.175H137.676H86.4C76.8264 148.175 67.5398 150.049 58.7979 153.747C54.5963 155.524 50.5437 157.724 46.7528 160.285C42.9976 162.822 39.4664 165.735 36.2572 168.945C33.048 172.154 30.1345 175.685 27.5975 179.44C25.0364 183.231 22.8368 187.284 21.0596 191.485C17.3621 200.227 15.4873 209.514 15.4873 219.087C15.4873 228.661 17.3621 237.948 21.0596 246.689C22.8368 250.891 25.0364 254.944 27.5975 258.735C30.1345 262.49 33.048 266.021 36.2572 269.23C39.4664 272.439 42.9976 275.353 46.7528 277.89C50.5437 280.451 54.5963 282.651 58.7979 284.428C67.5398 288.125 76.8264 290 86.4 290H223.924C225.847 290 227.791 289.922 229.701 289.768L229.773 289.762L229.846 289.767C232.265 289.922 234.726 290 237.16 290ZM237.16 291C234.68 291 232.22 290.921 229.782 290.765C227.851 290.92 225.895 291 223.924 291H86.4C46.6839 291 14.4873 258.803 14.4873 219.087C14.4873 179.371 46.6839 147.175 86.4 147.175H137.676C154.3 110.595 192.585 85 237.16 85C296.987 85 345.488 131.115 345.488 188C345.488 244.885 296.987 291 237.16 291Z" fill="white" fill-opacity="0.5"/>
</svg>
