<svg width="348" height="259" viewBox="0 0 348 259" fill="none" xmlns="http://www.w3.org/2000/svg">
    <defs>
        <linearGradient id="paint0_linear_102_25" x1="150.896" y1="78.9561" x2="216.938" y2="270.168" gradientUnits="userSpaceOnUse">
            <stop stop-color="white"/>
            <stop offset="1" stop-color="#F7F7F7" stop-opacity="0.8"/>
        </linearGradient>
    </defs>
<path d="M105 186C149.735 186 186 149.735 186 105C186 60.2649 149.735 24 105 24C60.2649 24 24 60.2649 24 105C24 149.735 60.2649 186 105 186Z" fill="#FBD07C"/>
<path d="M105 205C160.228 205 205 160.228 205 105C205 49.7715 160.228 5 105 5C49.7715 5 5 49.7715 5 105C5 160.228 49.7715 205 105 205Z" stroke="#FBD07C" stroke-width="10" stroke-linecap="round" stroke-dasharray="1 66"/>
<path d="M232.294 258.765C230.361 258.92 228.408 258.999 226.437 259H88.9131C79.4469 259.035 70.0668 257.201 61.3109 253.603C52.5551 250.005 44.5958 244.714 37.8897 238.032C31.1835 231.351 25.8624 223.412 22.2317 214.669C18.6009 205.927 16.7319 196.554 16.7319 187.087C16.7319 177.621 18.6009 168.248 22.2317 159.506C25.8624 150.763 31.1835 142.824 37.8897 136.143C44.5958 129.461 52.5551 124.17 61.3109 120.572C70.0668 116.974 79.4469 115.14 88.9131 115.175H140.189C156.813 78.6 195.1 53 239.673 53C299.5 53 348 99.115 348 156C348 212.885 299.5 259 239.673 259C237.193 259 234.733 258.922 232.294 258.765Z" fill="url(#paint0_linear_102_25)"/>
<path d="M239.673 258C246.958 258 254.239 257.302 261.313 255.926C268.206 254.585 274.987 252.584 281.465 249.978C287.826 247.42 293.961 244.254 299.699 240.568C305.382 236.917 310.726 232.725 315.583 228.107C320.438 223.49 324.846 218.411 328.684 213.009C332.558 207.557 335.886 201.728 338.574 195.686C341.311 189.532 343.413 183.093 344.822 176.547C346.267 169.831 347 162.917 347 156C347 149.082 346.267 142.169 344.822 135.452C343.413 128.906 341.311 122.467 338.574 116.314C335.886 110.272 332.558 104.443 328.684 98.991C324.846 93.5893 320.438 88.5095 315.583 83.8928C310.726 79.2752 305.382 75.0829 299.699 71.4323C293.961 67.7461 287.826 64.5801 281.465 62.0221C274.987 59.4165 268.206 57.4154 261.313 56.0742C254.239 54.6979 246.958 54 239.673 54C218.302 54 197.663 59.9523 179.986 71.2135C171.466 76.6418 163.809 83.1939 157.229 90.6878C150.608 98.2291 145.181 106.607 141.099 115.588L140.832 116.175H140.188H88.9127C79.3391 116.175 70.0525 118.049 61.3106 121.747C57.109 123.524 53.0564 125.724 49.2655 128.285C45.5103 130.822 41.9791 133.735 38.7699 136.945C35.5607 140.154 32.6472 143.685 30.1102 147.44C27.5491 151.231 25.3495 155.284 23.5723 159.485C19.8748 168.227 18 177.514 18 187.087C18 196.661 19.8748 205.948 23.5723 214.689C25.3495 218.891 27.5491 222.944 30.1102 226.735C32.6472 230.49 35.5607 234.021 38.7699 237.23C41.9791 240.439 45.5103 243.353 49.2655 245.89C53.0564 248.451 57.109 250.651 61.3106 252.428C70.0525 256.125 79.3391 258 88.9127 258H226.437C228.36 258 230.304 257.922 232.214 257.768L232.286 257.762L232.358 257.767C234.778 257.922 237.238 258 239.673 258ZM239.673 259C237.193 259 234.732 258.921 232.294 258.765C230.364 258.92 228.408 259 226.437 259H88.9127C49.1966 259 17 226.803 17 187.087C17 147.371 49.1966 115.175 88.9127 115.175H140.188C156.813 78.5954 195.098 53 239.673 53C299.5 53 348 99.1151 348 156C348 212.885 299.5 259 239.673 259Z" fill="white" fill-opacity="0.49"/>
</svg>
