<svg width="273" height="175" viewBox="0 0 273 175" fill="none" xmlns="http://www.w3.org/2000/svg">
<path d="M129.671 84.2871C129.671 84.2871 194.582 87.7952 223.371 79.4352C252.16 71.0752 252.119 27.6891 223.371 16.9941C194.623 6.29913 184.798 44.5271 184.798 44.5271" stroke="white" stroke-width="16" stroke-linecap="round"/>
<path d="M18.0171 131.148C18.0171 131.148 115.586 122.333 158.599 131.148C201.612 139.963 187.916 165.248 167.531 166.409C147.146 167.57 128.331 154.171 128.331 154.171" stroke="white" stroke-width="16" stroke-linecap="round"/>
<path d="M225.685 131.083H264.477" stroke="white" stroke-width="16" stroke-linecap="round"/>
<path d="M21.677 1.07159e-05C23.622 0.0220107 43.354 30.831 43.354 42.8C43.3544 48.5491 41.071 54.0629 37.006 58.1284C32.9411 62.1939 27.4276 64.4781 21.6785 64.4785C15.9294 64.4789 10.4156 62.1955 6.35011 58.1305C2.2846 54.0656 0.000397825 48.5521 0 42.803C0 30.829 19.732 -0.0209893 21.677 1.07159e-05Z" fill="#42A0F0"/>
<path d="M65.432 55C66.817 55.015 80.864 76.948 80.864 85.471C80.864 89.5638 79.2381 93.489 76.3441 96.3831C73.45 99.2771 69.5248 100.903 65.432 100.903C61.3392 100.903 57.414 99.2771 54.5199 96.3831C51.6259 93.489 50 89.5638 50 85.471C50 76.948 64.047 54.985 65.432 55Z" fill="#42A0F0"/>
<path d="M100.047 9.00001C101.128 9.01201 112.094 26.129 112.094 32.787C112.094 35.9821 110.825 39.0463 108.566 41.3055C106.306 43.5648 103.242 44.834 100.047 44.834C96.8519 44.834 93.7877 43.5648 91.5285 41.3055C89.2692 39.0463 88 35.9821 88 32.787C88 26.129 98.966 8.98801 100.047 9.00001Z" fill="#42A0F0"/>
</svg>
