<svg width="292" height="200" viewBox="0 0 292 200" fill="none" xmlns="http://www.w3.org/2000/svg">
<path d="M149.093 109.243C149.093 109.243 214.004 112.751 242.793 104.391C271.582 96.0312 271.541 52.6452 242.793 41.9502C214.045 31.2552 204.22 69.4831 204.22 69.4831" stroke="white" stroke-width="16" stroke-linecap="round"/>
<path d="M37.439 156.104C37.439 156.104 135.008 147.289 178.021 156.104C221.034 164.919 207.338 190.204 186.953 191.365C166.568 192.526 147.753 179.127 147.753 179.127" stroke="white" stroke-width="16" stroke-linecap="round"/>
<path d="M245.107 156.039H283.899" stroke="white" stroke-width="16" stroke-linecap="round"/>
<path d="M82.1138 30.2385L66.2385 130.471" stroke="#42A0F0" stroke-width="10" stroke-linecap="round"/>
<path d="M78.0323 54.7083L98.1173 39.6236" stroke="#42A0F0" stroke-width="10" stroke-linecap="round"/>
<path d="M78.0323 54.7083L63.0356 34.0671" stroke="#42A0F0" stroke-width="10" stroke-linecap="round"/>
<path d="M69.5654 108.166L84.006 128.719" stroke="#42A0F0" stroke-width="10" stroke-linecap="round"/>
<path d="M69.5655 108.166L48.9243 123.163" stroke="#42A0F0" stroke-width="10" stroke-linecap="round"/>
<path d="M121.242 62.5474L26.5006 98.9153" stroke="#42A0F0" stroke-width="10" stroke-linecap="round"/>
<path d="M98.0103 71.2475L121.117 81.0993" stroke="#42A0F0" stroke-width="10" stroke-linecap="round"/>
<path d="M98.0103 71.2477L108.388 47.9397" stroke="#42A0F0" stroke-width="10" stroke-linecap="round"/>
<path d="M47.481 90.644L36.9018 113.426" stroke="#42A0F0" stroke-width="10" stroke-linecap="round"/>
<path d="M47.4809 90.644L24.1729 80.2666" stroke="#42A0F0" stroke-width="10" stroke-linecap="round"/>
<path d="M112.826 112.588L33.9598 48.7237" stroke="#42A0F0" stroke-width="10" stroke-linecap="round"/>
<path d="M93.6753 96.8193L96.6965 121.756" stroke="#42A0F0" stroke-width="10" stroke-linecap="round"/>
<path d="M93.6753 96.8193L119.049 94.1523" stroke="#42A0F0" stroke-width="10" stroke-linecap="round"/>
<path d="M51.6133 62.7578L26.5935 64.9872" stroke="#42A0F0" stroke-width="10" stroke-linecap="round"/>
<path d="M51.6132 62.7578L48.9463 37.3837" stroke="#42A0F0" stroke-width="10" stroke-linecap="round"/>
<path d="M48.4849 4.3623L47.4005 11.209" stroke="#42A0F0" stroke-linecap="round"/>
<path d="M48.0724 6.00994L49.2748 5.62934" stroke="#42A0F0" stroke-linecap="round"/>
<path d="M48.0722 6.00982L46.4902 5.18823" stroke="#42A0F0" stroke-linecap="round"/>
<path d="M47.4551 9.90747L48.481 10.641" stroke="#42A0F0" stroke-linecap="round"/>
<path d="M47.4548 9.90735L45.6964 10.1999" stroke="#42A0F0" stroke-linecap="round"/>
<path d="M51.1572 6.5686L44.6856 9.05281" stroke="#42A0F0" stroke-linecap="round"/>
<path d="M49.571 7.16246L51.1491 7.83564" stroke="#42A0F0" stroke-linecap="round"/>
<path d="M49.5711 7.16248L50.2798 5.5708" stroke="#42A0F0" stroke-linecap="round"/>
<path d="M46.1196 8.4873L45.3973 10.0435" stroke="#42A0F0" stroke-linecap="round"/>
<path d="M46.1197 8.48733L44.5281 7.77867" stroke="#42A0F0" stroke-linecap="round"/>
<path d="M50.5825 9.98657L45.1953 5.62412" stroke="#42A0F0" stroke-linecap="round"/>
<path d="M49.275 8.90974L49.481 10.613" stroke="#42A0F0" stroke-linecap="round"/>
<path d="M49.275 8.90966L51.0078 8.72754" stroke="#42A0F0" stroke-linecap="round"/>
<path d="M46.4019 6.58325L44.693 6.73584" stroke="#42A0F0" stroke-linecap="round"/>
<path d="M46.4019 6.58318L46.2198 4.85041" stroke="#42A0F0" stroke-linecap="round"/>
<path d="M140.533 34.4783L138.674 46.214" stroke="#42A0F0" stroke-linecap="round"/>
<path d="M139.622 37.0627L141.938 36.8584" stroke="#42A0F0" stroke-linecap="round"/>
<path d="M139.622 37.0627L136.926 36.0647" stroke="#42A0F0" stroke-linecap="round"/>
<path d="M138.564 43.7454L140.615 45.2122" stroke="#42A0F0" stroke-linecap="round"/>
<path d="M138.564 43.7454L135.603 44.4186" stroke="#42A0F0" stroke-linecap="round"/>
<path d="M145.115 38.2615L134.022 42.5196" stroke="#42A0F0" stroke-linecap="round"/>
<path d="M142.395 39.2798L145.1 40.4331" stroke="#42A0F0" stroke-linecap="round"/>
<path d="M142.395 39.2799L143.61 36.5513" stroke="#42A0F0" stroke-linecap="round"/>
<path d="M136.479 41.5508L135.24 44.2178" stroke="#42A0F0" stroke-linecap="round"/>
<path d="M136.479 41.5508L133.75 40.336" stroke="#42A0F0" stroke-linecap="round"/>
<path d="M144.129 44.1204L134.895 36.6428" stroke="#42A0F0" stroke-linecap="round"/>
<path d="M141.887 42.2741L142.241 45.1933" stroke="#42A0F0" stroke-linecap="round"/>
<path d="M141.887 42.2741L144.857 41.9619" stroke="#42A0F0" stroke-linecap="round"/>
<path d="M136.962 38.2864L134.033 38.5473" stroke="#42A0F0" stroke-linecap="round"/>
<path d="M136.962 38.2864L136.65 35.3159" stroke="#42A0F0" stroke-linecap="round"/>
<path d="M119.634 119.646L118.108 129.28" stroke="#42A0F0" stroke-linecap="round"/>
<path d="M118.801 121.672L120.559 121.379" stroke="#42A0F0" stroke-linecap="round"/>
<path d="M118.801 121.672L116.662 120.762" stroke="#42A0F0" stroke-linecap="round"/>
<path d="M117.919 127.239L119.413 128.618" stroke="#42A0F0" stroke-linecap="round"/>
<path d="M117.919 127.239L115.515 128.001" stroke="#42A0F0" stroke-linecap="round"/>
<path d="M123.395 122.751L114.287 126.247" stroke="#42A0F0" stroke-linecap="round"/>
<path d="M121.162 123.586L123.383 124.533" stroke="#42A0F0" stroke-linecap="round"/>
<path d="M121.162 123.586L122.159 121.346" stroke="#42A0F0" stroke-linecap="round"/>
<path d="M116.305 125.451L115.288 127.641" stroke="#42A0F0" stroke-linecap="round"/>
<path d="M116.305 125.451L114.064 124.453" stroke="#42A0F0" stroke-linecap="round"/>
<path d="M122.585 127.562L115.004 121.423" stroke="#42A0F0" stroke-linecap="round"/>
<path d="M120.745 126.045L121.035 128.442" stroke="#42A0F0" stroke-linecap="round"/>
<path d="M120.745 126.045L123.184 125.789" stroke="#42A0F0" stroke-linecap="round"/>
<path d="M116.702 122.771L114.297 122.986" stroke="#42A0F0" stroke-linecap="round"/>
<path d="M116.702 122.771L116.445 120.333" stroke="#42A0F0" stroke-linecap="round"/>
<path d="M36.9863 129.389L35.6421 137.876" stroke="#42A0F0" stroke-linecap="round"/>
<path d="M36.1999 131.423L37.9583 131.131" stroke="#42A0F0" stroke-linecap="round"/>
<path d="M36.1996 131.423L34.6177 130.602" stroke="#42A0F0" stroke-linecap="round"/>
<path d="M35.4941 135.877L36.9879 137.256" stroke="#42A0F0" stroke-linecap="round"/>
<path d="M35.4939 135.877L33.6473 136.727" stroke="#42A0F0" stroke-linecap="round"/>
<path d="M40.2998 132.125L32.2775 135.204" stroke="#42A0F0" stroke-linecap="round"/>
<path d="M38.3318 132.862L40.2887 133.696" stroke="#42A0F0" stroke-linecap="round"/>
<path d="M38.332 132.862L39.2109 130.888" stroke="#42A0F0" stroke-linecap="round"/>
<path d="M34.0542 134.504L33.1581 136.433" stroke="#42A0F0" stroke-linecap="round"/>
<path d="M34.0544 134.504L32.0803 133.625" stroke="#42A0F0" stroke-linecap="round"/>
<path d="M39.5864 136.361L32.9084 130.954" stroke="#42A0F0" stroke-linecap="round"/>
<path d="M37.9644 135.026L38.2205 137.137" stroke="#42A0F0" stroke-linecap="round"/>
<path d="M37.9642 135.026L40.1133 134.8" stroke="#42A0F0" stroke-linecap="round"/>
<path d="M34.4033 132.143L32.2844 132.331" stroke="#42A0F0" stroke-linecap="round"/>
<path d="M34.4031 132.143L34.1773 129.993" stroke="#42A0F0" stroke-linecap="round"/>
<path d="M10.605 88.6777L9.51463 95.5619" stroke="#42A0F0" stroke-linecap="round"/>
<path d="M10.192 90.2001L11.3944 89.8195" stroke="#42A0F0" stroke-linecap="round"/>
<path d="M10.1918 90.2L8.60986 89.3784" stroke="#42A0F0" stroke-linecap="round"/>
<path d="M9.57471 94.0977L10.6006 94.8312" stroke="#42A0F0" stroke-linecap="round"/>
<path d="M9.57448 94.0975L7.81607 94.3901" stroke="#42A0F0" stroke-linecap="round"/>
<path d="M13.293 90.897L6.78591 93.3948" stroke="#42A0F0" stroke-linecap="round"/>
<path d="M11.6968 91.4943L13.2836 92.1706" stroke="#42A0F0" stroke-linecap="round"/>
<path d="M11.697 91.4943L12.4097 89.8936" stroke="#42A0F0" stroke-linecap="round"/>
<path d="M8.22656 92.8267L7.4999 94.391" stroke="#42A0F0" stroke-linecap="round"/>
<path d="M8.22673 92.8266L6.62601 92.1139" stroke="#42A0F0" stroke-linecap="round"/>
<path d="M12.7139 94.3335L7.29716 89.9471" stroke="#42A0F0" stroke-linecap="round"/>
<path d="M11.3984 93.2505L11.6061 94.9628" stroke="#42A0F0" stroke-linecap="round"/>
<path d="M11.3985 93.2505L13.1411 93.0674" stroke="#42A0F0" stroke-linecap="round"/>
<path d="M8.50977 90.9111L6.7917 91.064" stroke="#42A0F0" stroke-linecap="round"/>
<path d="M8.50982 90.9111L8.32667 89.1685" stroke="#42A0F0" stroke-linecap="round"/>
</svg>
