<svg width="337" height="358" viewBox="0 0 337 358" fill="none" xmlns="http://www.w3.org/2000/svg">
    <defs>
        <linearGradient id="paint0_linear_102_721" x1="134.164" y1="68.9561" x2="200.206" y2="260.168" gradientUnits="userSpaceOnUse">
            <stop stop-color="white"/>
            <stop offset="1" stop-color="#F7F7F7" stop-opacity="0.8"/>
        </linearGradient>
    </defs>
<path d="M118.865 163.295V172.143" stroke="#42A0F0" stroke-linecap="round"/>
<path d="M118.673 165.454L120.112 164.734" stroke="#42A0F0" stroke-linecap="round"/>
<path d="M118.673 165.454L116.514 164.734" stroke="#42A0F0" stroke-linecap="round"/>
<path d="M118.673 170.492L120.112 171.212" stroke="#42A0F0" stroke-linecap="round"/>
<path d="M118.673 170.492L116.514 171.212" stroke="#42A0F0" stroke-linecap="round"/>
<path d="M122.675 165.544L115.012 169.968" stroke="#42A0F0" stroke-linecap="round"/>
<path d="M120.793 166.61L122.917 167.143" stroke="#42A0F0" stroke-linecap="round"/>
<path d="M120.793 166.61L121.369 164.461" stroke="#42A0F0" stroke-linecap="round"/>
<path d="M116.706 168.969L116.106 171.076" stroke="#42A0F0" stroke-linecap="round"/>
<path d="M116.706 168.969L114.557 168.393" stroke="#42A0F0" stroke-linecap="round"/>
<path d="M122.632 169.968L114.969 165.544" stroke="#42A0F0" stroke-linecap="round"/>
<path d="M120.768 168.871L121.368 170.977" stroke="#42A0F0" stroke-linecap="round"/>
<path d="M120.768 168.871L122.917 168.295" stroke="#42A0F0" stroke-linecap="round"/>
<path d="M116.681 166.511L114.556 167.045" stroke="#42A0F0" stroke-linecap="round"/>
<path d="M116.681 166.511L116.105 164.362" stroke="#42A0F0" stroke-linecap="round"/>
<path d="M240.935 182.885V198.053" stroke="#42A0F0" stroke-linecap="round"/>
<path d="M240.303 186.326L243.182 185.606" stroke="#42A0F0" stroke-linecap="round"/>
<path d="M240.303 186.326L236.704 185.606" stroke="#42A0F0" stroke-linecap="round"/>
<path d="M240.303 194.962L243.182 196.401" stroke="#42A0F0" stroke-linecap="round"/>
<path d="M240.303 194.962L236.704 196.401" stroke="#42A0F0" stroke-linecap="round"/>
<path d="M247.466 186.74L234.33 194.324" stroke="#42A0F0" stroke-linecap="round"/>
<path d="M244.241 188.566L247.882 189.48" stroke="#42A0F0" stroke-linecap="round"/>
<path d="M244.241 188.566L245.228 184.883" stroke="#42A0F0" stroke-linecap="round"/>
<path d="M237.235 192.611L236.206 196.221" stroke="#42A0F0" stroke-linecap="round"/>
<path d="M237.235 192.611L233.552 191.624" stroke="#42A0F0" stroke-linecap="round"/>
<path d="M247.394 194.324L234.258 186.74" stroke="#42A0F0" stroke-linecap="round"/>
<path d="M244.199 192.444L245.228 196.054" stroke="#42A0F0" stroke-linecap="round"/>
<path d="M244.199 192.443L247.882 191.457" stroke="#42A0F0" stroke-linecap="round"/>
<path d="M237.193 188.398L233.552 189.312" stroke="#42A0F0" stroke-linecap="round"/>
<path d="M237.193 188.398L236.206 184.715" stroke="#42A0F0" stroke-linecap="round"/>
<path d="M329.592 206.439V218.892" stroke="#42A0F0" stroke-linecap="round"/>
<path d="M328.946 209.16L331.105 208.44" stroke="#42A0F0" stroke-linecap="round"/>
<path d="M328.946 209.16L326.067 208.44" stroke="#42A0F0" stroke-linecap="round"/>
<path d="M328.946 216.357L331.105 217.796" stroke="#42A0F0" stroke-linecap="round"/>
<path d="M328.946 216.357L326.067 217.796" stroke="#42A0F0" stroke-linecap="round"/>
<path d="M334.953 209.604L324.169 215.831" stroke="#42A0F0" stroke-linecap="round"/>
<path d="M332.305 211.105L335.295 211.855" stroke="#42A0F0" stroke-linecap="round"/>
<path d="M332.305 211.104L333.115 208.08" stroke="#42A0F0" stroke-linecap="round"/>
<path d="M326.554 214.425L325.709 217.389" stroke="#42A0F0" stroke-linecap="round"/>
<path d="M326.553 214.425L323.529 213.614" stroke="#42A0F0" stroke-linecap="round"/>
<path d="M334.894 215.83L324.109 209.604" stroke="#42A0F0" stroke-linecap="round"/>
<path d="M332.269 214.287L333.114 217.251" stroke="#42A0F0" stroke-linecap="round"/>
<path d="M332.27 214.286L335.294 213.476" stroke="#42A0F0" stroke-linecap="round"/>
<path d="M326.518 210.966L323.528 211.717" stroke="#42A0F0" stroke-linecap="round"/>
<path d="M326.518 210.966L325.708 207.942" stroke="#42A0F0" stroke-linecap="round"/>
<path d="M23.3345 259.227V270.196" stroke="#42A0F0" stroke-linecap="round"/>
<path d="M22.7485 261.948L24.9075 261.228" stroke="#42A0F0" stroke-linecap="round"/>
<path d="M22.7484 261.948L20.5894 261.228" stroke="#42A0F0" stroke-linecap="round"/>
<path d="M22.7485 267.705L24.9075 269.144" stroke="#42A0F0" stroke-linecap="round"/>
<path d="M22.7484 267.705L20.5894 269.144" stroke="#42A0F0" stroke-linecap="round"/>
<path d="M28.0581 262.015L18.5587 267.5" stroke="#42A0F0" stroke-linecap="round"/>
<path d="M25.7253 263.337L28.3586 263.998" stroke="#42A0F0" stroke-linecap="round"/>
<path d="M25.7252 263.337L26.439 260.673" stroke="#42A0F0" stroke-linecap="round"/>
<path d="M20.6582 266.262L19.914 268.873" stroke="#42A0F0" stroke-linecap="round"/>
<path d="M20.6581 266.262L17.9944 265.548" stroke="#42A0F0" stroke-linecap="round"/>
<path d="M28.0054 267.499L18.5059 262.015" stroke="#42A0F0" stroke-linecap="round"/>
<path d="M25.6941 266.139L26.4383 268.75" stroke="#42A0F0" stroke-linecap="round"/>
<path d="M25.6942 266.139L28.3579 265.425" stroke="#42A0F0" stroke-linecap="round"/>
<path d="M20.627 263.214L17.9937 263.875" stroke="#42A0F0" stroke-linecap="round"/>
<path d="M20.6271 263.214L19.9133 260.55" stroke="#42A0F0" stroke-linecap="round"/>
<path d="M178.943 301.166V310.063" stroke="#42A0F0" stroke-linecap="round"/>
<path d="M178.726 303.167L180.165 302.447" stroke="#42A0F0" stroke-linecap="round"/>
<path d="M178.726 303.167L176.567 302.447" stroke="#42A0F0" stroke-linecap="round"/>
<path d="M178.726 308.205L180.165 308.925" stroke="#42A0F0" stroke-linecap="round"/>
<path d="M178.726 308.205L176.567 308.925" stroke="#42A0F0" stroke-linecap="round"/>
<path d="M182.773 303.427L175.068 307.875" stroke="#42A0F0" stroke-linecap="round"/>
<path d="M180.881 304.499L183.017 305.035" stroke="#42A0F0" stroke-linecap="round"/>
<path d="M180.881 304.499L181.46 302.338" stroke="#42A0F0" stroke-linecap="round"/>
<path d="M176.772 306.872L176.168 308.99" stroke="#42A0F0" stroke-linecap="round"/>
<path d="M176.772 306.872L174.611 306.293" stroke="#42A0F0" stroke-linecap="round"/>
<path d="M182.732 307.875L175.027 303.426" stroke="#42A0F0" stroke-linecap="round"/>
<path d="M180.857 306.773L181.461 308.891" stroke="#42A0F0" stroke-linecap="round"/>
<path d="M180.857 306.773L183.018 306.194" stroke="#42A0F0" stroke-linecap="round"/>
<path d="M176.748 304.4L174.612 304.936" stroke="#42A0F0" stroke-linecap="round"/>
<path d="M176.748 304.4L176.169 302.239" stroke="#42A0F0" stroke-linecap="round"/>
<path d="M261.976 278.003V354.795" stroke="#42A0F0" stroke-width="6" stroke-linecap="round"/>
<path d="M261.822 296.774L275.047 283.122" stroke="#42A0F0" stroke-width="6" stroke-linecap="round"/>
<path d="M261.822 296.774L248.17 283.122" stroke="#42A0F0" stroke-width="6" stroke-linecap="round"/>
<path d="M261.822 337.73L275.047 351.382" stroke="#42A0F0" stroke-width="6" stroke-linecap="round"/>
<path d="M261.822 337.73L248.17 351.382" stroke="#42A0F0" stroke-width="6" stroke-linecap="round"/>
<path d="M295.044 297.52L228.54 335.916" stroke="#42A0F0" stroke-width="6" stroke-linecap="round"/>
<path d="M278.711 306.771L297.147 311.398" stroke="#42A0F0" stroke-width="6" stroke-linecap="round"/>
<path d="M278.711 306.772L283.708 288.123" stroke="#42A0F0" stroke-width="6" stroke-linecap="round"/>
<path d="M243.242 327.249L238.032 345.528" stroke="#42A0F0" stroke-width="6" stroke-linecap="round"/>
<path d="M243.242 327.249L224.593 322.252" stroke="#42A0F0" stroke-width="6" stroke-linecap="round"/>
<path d="M294.676 335.916L228.172 297.52" stroke="#42A0F0" stroke-width="6" stroke-linecap="round"/>
<path d="M278.496 326.396L283.707 344.675" stroke="#42A0F0" stroke-width="6" stroke-linecap="round"/>
<path d="M278.497 326.396L297.146 321.399" stroke="#42A0F0" stroke-width="6" stroke-linecap="round"/>
<path d="M243.028 305.918L224.592 310.546" stroke="#42A0F0" stroke-width="6" stroke-linecap="round"/>
<path d="M243.028 305.919L238.031 287.27" stroke="#42A0F0" stroke-width="6" stroke-linecap="round"/>
<path d="M174.976 190.003V266.795" stroke="#42A0F0" stroke-width="6" stroke-linecap="round"/>
<path d="M174.822 208.774L188.047 195.122" stroke="#42A0F0" stroke-width="6" stroke-linecap="round"/>
<path d="M174.822 208.774L161.17 195.122" stroke="#42A0F0" stroke-width="6" stroke-linecap="round"/>
<path d="M174.822 249.73L188.047 263.382" stroke="#42A0F0" stroke-width="6" stroke-linecap="round"/>
<path d="M174.822 249.73L161.17 263.382" stroke="#42A0F0" stroke-width="6" stroke-linecap="round"/>
<path d="M208.044 209.52L141.54 247.916" stroke="#42A0F0" stroke-width="6" stroke-linecap="round"/>
<path d="M191.711 218.771L210.147 223.398" stroke="#42A0F0" stroke-width="6" stroke-linecap="round"/>
<path d="M191.711 218.772L196.708 200.123" stroke="#42A0F0" stroke-width="6" stroke-linecap="round"/>
<path d="M156.242 239.249L151.032 257.528" stroke="#42A0F0" stroke-width="6" stroke-linecap="round"/>
<path d="M156.242 239.249L137.593 234.252" stroke="#42A0F0" stroke-width="6" stroke-linecap="round"/>
<path d="M207.676 247.916L141.172 209.52" stroke="#42A0F0" stroke-width="6" stroke-linecap="round"/>
<path d="M191.497 238.396L196.707 256.675" stroke="#42A0F0" stroke-width="6" stroke-linecap="round"/>
<path d="M191.497 238.396L210.146 233.399" stroke="#42A0F0" stroke-width="6" stroke-linecap="round"/>
<path d="M156.028 217.918L137.592 222.546" stroke="#42A0F0" stroke-width="6" stroke-linecap="round"/>
<path d="M156.028 217.919L151.031 199.27" stroke="#42A0F0" stroke-width="6" stroke-linecap="round"/>
<path d="M105.976 278.003V354.795" stroke="#42A0F0" stroke-width="6" stroke-linecap="round"/>
<path d="M105.822 296.774L119.047 283.122" stroke="#42A0F0" stroke-width="6" stroke-linecap="round"/>
<path d="M105.822 296.774L92.1699 283.122" stroke="#42A0F0" stroke-width="6" stroke-linecap="round"/>
<path d="M105.822 337.73L119.047 351.382" stroke="#42A0F0" stroke-width="6" stroke-linecap="round"/>
<path d="M105.822 337.73L92.1699 351.382" stroke="#42A0F0" stroke-width="6" stroke-linecap="round"/>
<path d="M139.044 297.52L72.5401 335.916" stroke="#42A0F0" stroke-width="6" stroke-linecap="round"/>
<path d="M122.711 306.771L141.147 311.398" stroke="#42A0F0" stroke-width="6" stroke-linecap="round"/>
<path d="M122.711 306.772L127.708 288.123" stroke="#42A0F0" stroke-width="6" stroke-linecap="round"/>
<path d="M87.2422 327.249L82.0317 345.528" stroke="#42A0F0" stroke-width="6" stroke-linecap="round"/>
<path d="M87.242 327.249L68.593 322.252" stroke="#42A0F0" stroke-width="6" stroke-linecap="round"/>
<path d="M138.676 335.916L72.1724 297.52" stroke="#42A0F0" stroke-width="6" stroke-linecap="round"/>
<path d="M122.497 326.396L127.707 344.675" stroke="#42A0F0" stroke-width="6" stroke-linecap="round"/>
<path d="M122.497 326.396L141.146 321.399" stroke="#42A0F0" stroke-width="6" stroke-linecap="round"/>
<path d="M87.0278 305.918L68.5924 310.546" stroke="#42A0F0" stroke-width="6" stroke-linecap="round"/>
<path d="M87.028 305.919L82.031 287.27" stroke="#42A0F0" stroke-width="6" stroke-linecap="round"/>
<path d="M95.729 169C136.322 169 169.229 136.093 169.229 95.5C169.229 54.9071 136.322 22 95.729 22C55.1361 22 22.229 54.9071 22.229 95.5C22.229 136.093 55.1361 169 95.729 169Z" fill="#FBD07C"/>
<path d="M95.729 186C145.711 186 186.229 145.482 186.229 95.5C186.229 45.5182 145.711 5 95.729 5C45.7472 5 5.229 45.5182 5.229 95.5C5.229 145.482 45.7472 186 95.729 186Z" stroke="#FBD07C" stroke-width="10" stroke-linecap="round" stroke-dasharray="1 66"/>
<path d="M215.562 248.765C213.629 248.92 211.676 248.999 209.705 249H72.1812C62.7149 249.035 53.3348 247.201 44.579 243.603C35.8232 240.005 27.8639 234.714 21.1577 228.032C14.4516 221.351 9.13049 213.412 5.49974 204.669C1.86898 195.927 0 186.554 0 177.087C0 167.621 1.86898 158.248 5.49974 149.506C9.13049 140.763 14.4516 132.824 21.1577 126.143C27.8639 119.461 35.8232 114.17 44.579 110.572C53.3348 106.974 62.7149 105.14 72.1812 105.175H123.457C140.081 68.6 178.368 43 222.941 43C282.768 43 331.268 89.115 331.268 146C331.268 202.885 282.768 249 222.941 249C220.461 249 218.001 248.922 215.562 248.765Z" fill="url(#paint0_linear_102_721)"/>
<path d="M222.941 248C230.227 248 237.508 247.302 244.581 245.926C251.475 244.585 258.255 242.584 264.733 239.978C271.094 237.42 277.229 234.254 282.967 230.568C288.65 226.917 293.994 222.725 298.851 218.107C303.706 213.49 308.114 208.411 311.952 203.009C315.826 197.557 319.154 191.728 321.842 185.686C324.579 179.532 326.681 173.093 328.09 166.547C329.535 159.831 330.268 152.917 330.268 146C330.268 139.082 329.535 132.169 328.09 125.452C326.681 118.906 324.579 112.467 321.842 106.314C319.154 100.272 315.826 94.4433 311.952 88.991C308.114 83.5893 303.706 78.5095 298.851 73.8928C293.994 69.2752 288.65 65.0829 282.967 61.4323C277.229 57.7461 271.094 54.5801 264.733 52.0221C258.255 49.4165 251.475 47.4154 244.581 46.0742C237.508 44.6979 230.227 44 222.941 44C201.57 44 180.931 49.9523 163.254 61.2135C154.734 66.6418 147.077 73.1939 140.497 80.6878C133.876 88.2291 128.449 96.6069 124.367 105.588L124.1 106.175H123.456H72.1807C62.6072 106.175 53.3205 108.049 44.5787 111.747C40.3771 113.524 36.3245 115.724 32.5336 118.285C28.7784 120.822 25.2472 123.735 22.038 126.945C18.8288 130.154 15.9152 133.685 13.3783 137.44C10.8172 141.231 8.61752 145.284 6.84036 149.485C3.14286 158.227 1.26807 167.514 1.26807 177.087C1.26807 186.661 3.14286 195.948 6.84036 204.689C8.61752 208.891 10.8172 212.944 13.3783 216.735C15.9152 220.49 18.8288 224.021 22.038 227.23C25.2472 230.439 28.7784 233.353 32.5336 235.89C36.3245 238.451 40.3771 240.651 44.5787 242.428C53.3205 246.125 62.6072 248 72.1807 248H209.705C211.628 248 213.572 247.922 215.482 247.768L215.554 247.762L215.626 247.767C218.046 247.922 220.507 248 222.941 248ZM222.941 249C220.461 249 218 248.921 215.562 248.765C213.632 248.92 211.676 249 209.705 249H72.1807C32.4646 249 0.268066 216.803 0.268066 177.087C0.268066 137.371 32.4646 105.175 72.1807 105.175H123.456C140.081 68.5954 178.366 43 222.941 43C282.768 43 331.268 89.1151 331.268 146C331.268 202.885 282.768 249 222.941 249Z" fill="white" fill-opacity="0.5"/>
</svg>
