<svg width="374" height="338" viewBox="0 0 374 338" fill="none" xmlns="http://www.w3.org/2000/svg">
    <defs>
        <linearGradient id="paint0_linear_102_935" x1="52.9858" y1="0" x2="52.9858" y2="17" gradientUnits="userSpaceOnUse">
            <stop stop-color="#6B38FC"/>
            <stop offset="1" stop-color="#9F7EFD"/>
        </linearGradient>
        <linearGradient id="paint1_linear_102_935" x1="167.486" y1="147" x2="167.486" y2="161" gradientUnits="userSpaceOnUse">
            <stop stop-color="#6B38FC"/>
            <stop offset="1" stop-color="#9F7EFD"/>
        </linearGradient>
        <linearGradient id="paint2_linear_102_935" x1="133.49" y1="19.6048" x2="137.324" y2="33.9016" gradientUnits="userSpaceOnUse">
            <stop stop-color="#6B38FC"/>
            <stop offset="1" stop-color="#9F7EFD"/>
        </linearGradient>
        <linearGradient id="paint3_linear_102_935" x1="7.18887" y1="135.599" x2="12.3282" y2="147.705" gradientUnits="userSpaceOnUse">
            <stop stop-color="#6B38FC"/>
            <stop offset="1" stop-color="#9F7EFD"/>
        </linearGradient>
        <linearGradient id="paint4_linear_102_935" x1="130.151" y1="71.0393" x2="119.741" y2="68.6359" gradientUnits="userSpaceOnUse">
            <stop stop-color="#6B38FC"/>
            <stop offset="1" stop-color="#9F7EFD"/>
        </linearGradient>
        <linearGradient id="paint5_linear_102_935" x1="171.381" y1="48.9561" x2="237.424" y2="240.168" gradientUnits="userSpaceOnUse">
            <stop stop-color="white"/>
            <stop offset="1" stop-color="#F7F7F7" stop-opacity="0.8"/>
        </linearGradient>
    </defs>
<path d="M156.083 143.295V152.143" stroke="#42A0F0" stroke-linecap="round"/>
<path d="M155.891 145.454L157.33 144.734" stroke="#42A0F0" stroke-linecap="round"/>
<path d="M155.891 145.454L153.732 144.734" stroke="#42A0F0" stroke-linecap="round"/>
<path d="M155.891 150.492L157.33 151.212" stroke="#42A0F0" stroke-linecap="round"/>
<path d="M155.891 150.492L153.732 151.212" stroke="#42A0F0" stroke-linecap="round"/>
<path d="M159.893 145.544L152.23 149.968" stroke="#42A0F0" stroke-linecap="round"/>
<path d="M158.011 146.61L160.135 147.143" stroke="#42A0F0" stroke-linecap="round"/>
<path d="M158.011 146.61L158.586 144.461" stroke="#42A0F0" stroke-linecap="round"/>
<path d="M153.924 148.969L153.324 151.076" stroke="#42A0F0" stroke-linecap="round"/>
<path d="M153.924 148.969L151.775 148.393" stroke="#42A0F0" stroke-linecap="round"/>
<path d="M159.85 149.968L152.187 145.544" stroke="#42A0F0" stroke-linecap="round"/>
<path d="M157.985 148.871L158.586 150.977" stroke="#42A0F0" stroke-linecap="round"/>
<path d="M157.986 148.871L160.134 148.295" stroke="#42A0F0" stroke-linecap="round"/>
<path d="M153.898 146.511L151.774 147.045" stroke="#42A0F0" stroke-linecap="round"/>
<path d="M153.899 146.511L153.323 144.362" stroke="#42A0F0" stroke-linecap="round"/>
<path d="M278.154 162.885V178.053" stroke="#42A0F0" stroke-linecap="round"/>
<path d="M277.521 166.326L280.4 165.606" stroke="#42A0F0" stroke-linecap="round"/>
<path d="M277.522 166.326L273.923 165.606" stroke="#42A0F0" stroke-linecap="round"/>
<path d="M277.521 174.962L280.4 176.401" stroke="#42A0F0" stroke-linecap="round"/>
<path d="M277.522 174.962L273.923 176.401" stroke="#42A0F0" stroke-linecap="round"/>
<path d="M284.685 166.74L271.549 174.324" stroke="#42A0F0" stroke-linecap="round"/>
<path d="M281.458 168.566L285.099 169.48" stroke="#42A0F0" stroke-linecap="round"/>
<path d="M281.459 168.566L282.445 164.883" stroke="#42A0F0" stroke-linecap="round"/>
<path d="M274.452 172.611L273.423 176.221" stroke="#42A0F0" stroke-linecap="round"/>
<path d="M274.452 172.611L270.77 171.624" stroke="#42A0F0" stroke-linecap="round"/>
<path d="M284.612 174.324L271.476 166.74" stroke="#42A0F0" stroke-linecap="round"/>
<path d="M281.417 172.444L282.446 176.054" stroke="#42A0F0" stroke-linecap="round"/>
<path d="M281.417 172.443L285.1 171.457" stroke="#42A0F0" stroke-linecap="round"/>
<path d="M274.411 168.398L270.77 169.312" stroke="#42A0F0" stroke-linecap="round"/>
<path d="M274.411 168.398L273.424 164.715" stroke="#42A0F0" stroke-linecap="round"/>
<path d="M366.81 186.439V198.892" stroke="#42A0F0" stroke-linecap="round"/>
<path d="M366.164 189.16L368.323 188.44" stroke="#42A0F0" stroke-linecap="round"/>
<path d="M366.164 189.16L363.285 188.44" stroke="#42A0F0" stroke-linecap="round"/>
<path d="M366.164 196.357L368.323 197.796" stroke="#42A0F0" stroke-linecap="round"/>
<path d="M366.164 196.357L363.285 197.796" stroke="#42A0F0" stroke-linecap="round"/>
<path d="M372.171 189.604L361.386 195.831" stroke="#42A0F0" stroke-linecap="round"/>
<path d="M369.523 191.105L372.513 191.855" stroke="#42A0F0" stroke-linecap="round"/>
<path d="M369.523 191.104L370.333 188.08" stroke="#42A0F0" stroke-linecap="round"/>
<path d="M363.771 194.425L362.927 197.389" stroke="#42A0F0" stroke-linecap="round"/>
<path d="M363.771 194.425L360.747 193.614" stroke="#42A0F0" stroke-linecap="round"/>
<path d="M372.111 195.83L361.327 189.604" stroke="#42A0F0" stroke-linecap="round"/>
<path d="M369.487 194.287L370.332 197.251" stroke="#42A0F0" stroke-linecap="round"/>
<path d="M369.487 194.286L372.512 193.476" stroke="#42A0F0" stroke-linecap="round"/>
<path d="M363.735 190.966L360.745 191.717" stroke="#42A0F0" stroke-linecap="round"/>
<path d="M363.736 190.966L362.925 187.942" stroke="#42A0F0" stroke-linecap="round"/>
<path d="M60.5522 239.227V250.196" stroke="#42A0F0" stroke-linecap="round"/>
<path d="M59.9663 241.948L62.1253 241.228" stroke="#42A0F0" stroke-linecap="round"/>
<path d="M59.9661 241.948L57.8071 241.228" stroke="#42A0F0" stroke-linecap="round"/>
<path d="M59.9663 247.705L62.1253 249.144" stroke="#42A0F0" stroke-linecap="round"/>
<path d="M59.9661 247.705L57.8071 249.144" stroke="#42A0F0" stroke-linecap="round"/>
<path d="M65.2759 242.015L55.7764 247.5" stroke="#42A0F0" stroke-linecap="round"/>
<path d="M62.9431 243.337L65.5763 243.998" stroke="#42A0F0" stroke-linecap="round"/>
<path d="M62.943 243.337L63.6567 240.673" stroke="#42A0F0" stroke-linecap="round"/>
<path d="M57.876 246.262L57.1317 248.873" stroke="#42A0F0" stroke-linecap="round"/>
<path d="M57.8759 246.262L55.2121 245.548" stroke="#42A0F0" stroke-linecap="round"/>
<path d="M65.2231 247.499L55.7237 242.015" stroke="#42A0F0" stroke-linecap="round"/>
<path d="M62.9118 246.139L63.6561 248.75" stroke="#42A0F0" stroke-linecap="round"/>
<path d="M62.9119 246.139L65.5757 245.425" stroke="#42A0F0" stroke-linecap="round"/>
<path d="M57.8447 243.214L55.2115 243.875" stroke="#42A0F0" stroke-linecap="round"/>
<path d="M57.8448 243.214L57.1311 240.55" stroke="#42A0F0" stroke-linecap="round"/>
<path d="M216.161 281.166V290.063" stroke="#42A0F0" stroke-linecap="round"/>
<path d="M215.944 283.167L217.383 282.447" stroke="#42A0F0" stroke-linecap="round"/>
<path d="M215.944 283.167L213.785 282.447" stroke="#42A0F0" stroke-linecap="round"/>
<path d="M215.944 288.205L217.383 288.925" stroke="#42A0F0" stroke-linecap="round"/>
<path d="M215.944 288.205L213.785 288.925" stroke="#42A0F0" stroke-linecap="round"/>
<path d="M219.991 283.427L212.286 287.875" stroke="#42A0F0" stroke-linecap="round"/>
<path d="M218.099 284.499L220.235 285.035" stroke="#42A0F0" stroke-linecap="round"/>
<path d="M218.099 284.499L218.678 282.338" stroke="#42A0F0" stroke-linecap="round"/>
<path d="M213.99 286.872L213.386 288.99" stroke="#42A0F0" stroke-linecap="round"/>
<path d="M213.99 286.872L211.829 286.293" stroke="#42A0F0" stroke-linecap="round"/>
<path d="M219.95 287.875L212.245 283.426" stroke="#42A0F0" stroke-linecap="round"/>
<path d="M218.074 286.773L218.678 288.891" stroke="#42A0F0" stroke-linecap="round"/>
<path d="M218.074 286.773L220.235 286.194" stroke="#42A0F0" stroke-linecap="round"/>
<path d="M213.965 284.4L211.829 284.936" stroke="#42A0F0" stroke-linecap="round"/>
<path d="M213.965 284.4L213.386 282.239" stroke="#42A0F0" stroke-linecap="round"/>
<path d="M299.193 258.003V334.795" stroke="#42A0F0" stroke-width="6" stroke-linecap="round"/>
<path d="M299.04 276.774L312.265 263.122" stroke="#42A0F0" stroke-width="6" stroke-linecap="round"/>
<path d="M299.04 276.774L285.388 263.122" stroke="#42A0F0" stroke-width="6" stroke-linecap="round"/>
<path d="M299.04 317.73L312.265 331.382" stroke="#42A0F0" stroke-width="6" stroke-linecap="round"/>
<path d="M299.04 317.73L285.388 331.382" stroke="#42A0F0" stroke-width="6" stroke-linecap="round"/>
<path d="M332.262 277.52L265.758 315.916" stroke="#42A0F0" stroke-width="6" stroke-linecap="round"/>
<path d="M315.928 286.771L334.363 291.398" stroke="#42A0F0" stroke-width="6" stroke-linecap="round"/>
<path d="M315.928 286.772L320.925 268.123" stroke="#42A0F0" stroke-width="6" stroke-linecap="round"/>
<path d="M280.459 307.249L275.249 325.528" stroke="#42A0F0" stroke-width="6" stroke-linecap="round"/>
<path d="M280.459 307.249L261.81 302.252" stroke="#42A0F0" stroke-width="6" stroke-linecap="round"/>
<path d="M331.894 315.916L265.39 277.52" stroke="#42A0F0" stroke-width="6" stroke-linecap="round"/>
<path d="M315.714 306.396L320.925 324.675" stroke="#42A0F0" stroke-width="6" stroke-linecap="round"/>
<path d="M315.714 306.396L334.363 301.399" stroke="#42A0F0" stroke-width="6" stroke-linecap="round"/>
<path d="M280.245 285.918L261.81 290.546" stroke="#42A0F0" stroke-width="6" stroke-linecap="round"/>
<path d="M280.245 285.919L275.248 267.27" stroke="#42A0F0" stroke-width="6" stroke-linecap="round"/>
<path d="M212.194 170.003V246.795" stroke="#42A0F0" stroke-width="6" stroke-linecap="round"/>
<path d="M212.04 188.774L225.265 175.122" stroke="#42A0F0" stroke-width="6" stroke-linecap="round"/>
<path d="M212.04 188.774L198.388 175.122" stroke="#42A0F0" stroke-width="6" stroke-linecap="round"/>
<path d="M212.04 229.73L225.265 243.382" stroke="#42A0F0" stroke-width="6" stroke-linecap="round"/>
<path d="M212.04 229.73L198.388 243.382" stroke="#42A0F0" stroke-width="6" stroke-linecap="round"/>
<path d="M245.262 189.52L178.758 227.916" stroke="#42A0F0" stroke-width="6" stroke-linecap="round"/>
<path d="M228.929 198.771L247.364 203.398" stroke="#42A0F0" stroke-width="6" stroke-linecap="round"/>
<path d="M228.929 198.772L233.926 180.123" stroke="#42A0F0" stroke-width="6" stroke-linecap="round"/>
<path d="M193.46 219.249L188.249 237.528" stroke="#42A0F0" stroke-width="6" stroke-linecap="round"/>
<path d="M193.46 219.249L174.811 214.252" stroke="#42A0F0" stroke-width="6" stroke-linecap="round"/>
<path d="M244.894 227.916L178.39 189.52" stroke="#42A0F0" stroke-width="6" stroke-linecap="round"/>
<path d="M228.715 218.396L233.925 236.675" stroke="#42A0F0" stroke-width="6" stroke-linecap="round"/>
<path d="M228.715 218.396L247.364 213.399" stroke="#42A0F0" stroke-width="6" stroke-linecap="round"/>
<path d="M193.246 197.918L174.81 202.546" stroke="#42A0F0" stroke-width="6" stroke-linecap="round"/>
<path d="M193.246 197.919L188.249 179.27" stroke="#42A0F0" stroke-width="6" stroke-linecap="round"/>
<path d="M143.194 258.003V334.795" stroke="#42A0F0" stroke-width="6" stroke-linecap="round"/>
<path d="M143.04 276.774L156.265 263.122" stroke="#42A0F0" stroke-width="6" stroke-linecap="round"/>
<path d="M143.04 276.774L129.388 263.122" stroke="#42A0F0" stroke-width="6" stroke-linecap="round"/>
<path d="M143.04 317.73L156.265 331.382" stroke="#42A0F0" stroke-width="6" stroke-linecap="round"/>
<path d="M143.04 317.73L129.388 331.382" stroke="#42A0F0" stroke-width="6" stroke-linecap="round"/>
<path d="M176.262 277.52L109.758 315.916" stroke="#42A0F0" stroke-width="6" stroke-linecap="round"/>
<path d="M159.929 286.771L178.364 291.398" stroke="#42A0F0" stroke-width="6" stroke-linecap="round"/>
<path d="M159.929 286.772L164.926 268.123" stroke="#42A0F0" stroke-width="6" stroke-linecap="round"/>
<path d="M124.46 307.249L119.249 325.528" stroke="#42A0F0" stroke-width="6" stroke-linecap="round"/>
<path d="M124.46 307.249L105.811 302.252" stroke="#42A0F0" stroke-width="6" stroke-linecap="round"/>
<path d="M175.894 315.916L109.39 277.52" stroke="#42A0F0" stroke-width="6" stroke-linecap="round"/>
<path d="M159.715 306.396L164.925 324.675" stroke="#42A0F0" stroke-width="6" stroke-linecap="round"/>
<path d="M159.715 306.396L178.364 301.399" stroke="#42A0F0" stroke-width="6" stroke-linecap="round"/>
<path d="M124.246 285.918L105.81 290.546" stroke="#42A0F0" stroke-width="6" stroke-linecap="round"/>
<path d="M124.246 285.919L119.249 267.27" stroke="#42A0F0" stroke-width="6" stroke-linecap="round"/>
<path d="M90.4871 173.295C75.2648 173.315 60.3896 168.748 47.8011 160.19C36.3708 152.443 27.2385 141.759 21.3639 129.263C15.4893 116.767 13.0894 102.919 14.4163 89.1742C15.7433 75.4297 20.7481 62.2965 28.9048 51.1548C37.0615 40.0131 48.0689 31.2743 60.7701 25.8568C70.1664 21.8588 80.2757 19.8075 90.4871 19.8268C93.468 19.8269 96.4463 19.9998 99.4071 20.3448C97.6809 24.1194 96.3602 28.0665 95.4671 32.1198C94.5492 36.3033 94.0868 40.5738 94.0881 44.8568C94.069 56.6099 97.578 68.0983 104.161 77.8348C108.405 84.1147 113.813 89.5229 120.093 93.7668C123.249 95.8987 126.605 97.7198 130.112 99.2048C137.375 102.279 145.184 103.855 153.071 103.84C157.634 103.841 162.182 103.316 166.624 102.275C165.576 116.709 160.46 130.551 151.869 142.197C149.09 145.965 145.974 149.472 142.559 152.676C128.467 165.938 109.839 173.314 90.4871 173.295Z" fill="#713FFD"/>
<path d="M52.9858 0L55.5508 6.2L62.4858 8.5L55.5508 10.8L52.9858 17L50.4208 10.8L43.4858 8.5L50.4208 6.2L52.9858 0Z" fill="url(#paint0_linear_102_935)"/>
<path d="M167.486 147L169.646 152.11L175.486 154L169.646 155.89L167.486 161L165.326 155.89L159.486 154L165.326 152.11L167.486 147Z" fill="url(#paint1_linear_102_935)"/>
<path d="M133.489 19.6052L137.03 24.2472L143.344 24.6252L138.066 28.1112L137.322 33.902L133.781 29.2497L127.467 28.8716L132.745 25.3856L133.489 19.6052Z" fill="url(#paint2_linear_102_935)"/>
<path d="M7.1838 135.601L11.0048 139.196L16.9482 138.602L12.3921 142.464L12.3231 147.707L8.51299 144.109L2.56965 144.704L7.1265 140.843L7.1838 135.601Z" fill="url(#paint3_linear_102_935)"/>
<path d="M130.152 71.0383L125.952 71.8895L123.468 76.2421L123.142 71.2408L119.741 68.6349L123.943 67.7863L126.427 63.4335L126.75 68.4344L130.152 71.0383Z" fill="url(#paint4_linear_102_935)"/>
<path d="M252.78 228.765C250.847 228.92 248.894 228.999 246.923 229H109.399C99.9327 229.035 90.5526 227.201 81.7968 223.603C73.041 220.005 65.0817 214.714 58.3755 208.032C51.6693 201.351 46.3483 193.412 42.7175 184.669C39.0868 175.927 37.2178 166.554 37.2178 157.087C37.2178 147.621 39.0868 138.248 42.7175 129.506C46.3483 120.763 51.6693 112.824 58.3755 106.143C65.0817 99.4614 73.041 94.17 81.7968 90.5718C90.5526 86.9737 99.9327 85.1397 109.399 85.175H160.675C177.299 48.6 215.586 23 260.159 23C319.986 23 368.486 69.115 368.486 126C368.486 182.885 319.986 229 260.159 229C257.679 229 255.219 228.922 252.78 228.765Z" fill="url(#paint5_linear_102_935)"/>
<path d="M260.158 228C267.444 228 274.725 227.302 281.799 225.926C288.692 224.585 295.472 222.584 301.951 219.978C308.312 217.42 314.447 214.254 320.185 210.568C325.868 206.917 331.212 202.725 336.068 198.107C340.924 193.49 345.332 188.411 349.17 183.009C353.044 177.557 356.371 171.728 359.059 165.686C361.797 159.532 363.899 153.093 365.308 146.547C366.753 139.831 367.486 132.917 367.486 126C367.486 119.082 366.753 112.169 365.308 105.452C363.899 98.9062 361.797 92.4673 359.059 86.3142C356.371 80.2716 353.044 74.4433 349.17 68.991C345.332 63.5893 340.924 58.5095 336.069 53.8928C331.212 49.2752 325.868 45.0829 320.185 41.4323C314.447 37.7461 308.312 34.5801 301.951 32.0221C295.472 29.4165 288.692 27.4154 281.799 26.0742C274.725 24.6979 267.444 24 260.158 24C238.788 24 218.148 29.9523 200.472 41.2135C191.952 46.6418 184.295 53.1939 177.715 60.6878C171.094 68.2291 165.667 76.6069 161.585 85.5885L161.318 86.1747H160.674H109.399C99.825 86.1747 90.5383 88.0495 81.7965 91.747C77.5948 93.5242 73.5423 95.7238 69.7513 98.2849C65.9962 100.822 62.465 103.735 59.2558 106.945C56.0465 110.154 53.133 113.685 50.596 117.44C48.035 121.231 45.8353 125.284 44.0581 129.485C40.3606 138.227 38.4858 147.514 38.4858 157.087C38.4858 166.661 40.3606 175.948 44.0581 184.689C45.8353 188.891 48.035 192.944 50.596 196.735C53.133 200.49 56.0465 204.021 59.2558 207.23C62.465 210.439 65.9962 213.353 69.7513 215.89C73.5423 218.451 77.5948 220.651 81.7965 222.428C90.5383 226.125 99.825 228 109.399 228H246.923C248.846 228 250.79 227.922 252.7 227.768L252.772 227.762L252.844 227.767C255.263 227.922 257.724 228 260.158 228ZM260.158 229C257.679 229 255.218 228.921 252.78 228.765C250.85 228.92 248.894 229 246.923 229H109.399C69.6824 229 37.4858 196.803 37.4858 157.087C37.4858 117.371 69.6824 85.1747 109.399 85.1747H160.674C177.299 48.5954 215.584 23 260.158 23C319.986 23 368.486 69.1151 368.486 126C368.486 182.885 319.986 229 260.158 229Z" fill="white" fill-opacity="0.5"/>
</svg>
