<svg width="313" height="315" viewBox="0 0 313 315" fill="none" xmlns="http://www.w3.org/2000/svg">
    <defs>
        <filter id="filter0_d_102_15" x="2.95801" y="4.37305" width="309.107" height="310.577" filterUnits="userSpaceOnUse" color-interpolation-filters="sRGB">
            <feFlood flood-opacity="0" result="BackgroundImageFix"/>
            <feColorMatrix in="SourceAlpha" type="matrix" values="0 0 0 0 0 0 0 0 0 0 0 0 0 0 0 0 0 0 127 0" result="hardAlpha"/>
            <feOffset dx="10" dy="2"/>
            <feGaussianBlur stdDeviation="15"/>
            <feColorMatrix type="matrix" values="0 0 0 0 0 0 0 0 0 0 0 0 0 0 0 0 0 0 0.25 0"/>
            <feBlend mode="normal" in2="BackgroundImageFix" result="effect1_dropShadow_102_15"/>
            <feBlend mode="normal" in="SourceGraphic" in2="effect1_dropShadow_102_15" result="shape"/>
        </filter>
        <linearGradient id="paint0_linear_102_15" x1="87.3521" y1="0" x2="87.3521" y2="28" gradientUnits="userSpaceOnUse">
            <stop stop-color="#6B38FC"/>
            <stop offset="1" stop-color="#9F7EFD"/>
        </linearGradient>
        <linearGradient id="paint1_linear_102_15" x1="273.352" y1="240" x2="273.352" y2="263" gradientUnits="userSpaceOnUse">
            <stop stop-color="#6B38FC"/>
            <stop offset="1" stop-color="#9F7EFD"/>
        </linearGradient>
        <linearGradient id="paint2_linear_102_15" x1="217.956" y1="32.011" x2="224.209" y2="55.3322" gradientUnits="userSpaceOnUse">
            <stop stop-color="#6B38FC"/>
            <stop offset="1" stop-color="#9F7EFD"/>
        </linearGradient>
        <linearGradient id="paint3_linear_102_15" x1="11.7345" y1="221.403" x2="20.1277" y2="241.173" gradientUnits="userSpaceOnUse">
            <stop stop-color="#6B38FC"/>
            <stop offset="1" stop-color="#9F7EFD"/>
        </linearGradient>
        <linearGradient id="paint4_linear_102_15" x1="212.507" y1="115.99" x2="195.516" y2="112.068" gradientUnits="userSpaceOnUse">
            <stop stop-color="#6B38FC"/>
            <stop offset="1" stop-color="#9F7EFD"/>
        </linearGradient>
    </defs>
<g filter="url(#filter0_d_102_15)">
<path d="M147.745 282.95C139.307 282.952 130.89 282.099 122.623 280.405C106.668 277.119 91.5202 270.712 78.0491 261.553C59.386 248.904 44.4749 231.461 34.883 211.057C25.291 190.653 21.3723 168.043 23.5389 145.601C25.7054 123.16 33.8772 101.716 47.1952 83.5244C60.5133 65.3326 78.4859 51.0642 99.2242 42.2189C106.763 39.016 114.601 36.5707 122.624 34.9189C135.679 32.2479 149.076 31.6741 162.311 33.2189C159.493 39.3823 157.336 45.8274 155.878 52.4459C152.98 65.6791 152.88 79.3718 155.584 92.6459C158.107 104.965 163.031 116.666 170.075 127.083C177.004 137.338 185.835 146.17 196.089 153.1C201.243 156.581 206.721 159.554 212.448 161.979C218.274 164.442 224.33 166.321 230.526 167.591C244.254 170.387 258.424 170.183 272.065 166.991C269.766 198.383 255.739 227.76 232.773 249.284C209.762 270.94 179.344 282.983 147.745 282.95V282.95Z" fill="#713FFD"/>
</g>
<path d="M87.3521 0L91.4021 10.22L102.352 14L91.4021 17.78L87.3521 28L83.3021 17.78L72.3521 14L83.3021 10.22L87.3521 0Z" fill="url(#paint0_linear_102_15)"/>
<path d="M273.352 240L276.862 248.4L286.352 251.5L276.862 254.6L273.352 263L269.842 254.6L260.352 251.5L269.842 248.4L273.352 240Z" fill="url(#paint1_linear_102_15)"/>
<path d="M217.956 32.0111L223.737 39.5854L234.04 40.1975L225.425 45.8818L224.209 55.3323L218.429 47.7587L208.126 47.1467L216.74 41.4614L217.956 32.0111Z" fill="url(#paint2_linear_102_15)"/>
<path d="M11.7354 221.403L17.9663 227.272L27.6655 226.307L20.2341 232.614L20.1286 241.173L13.8938 235.3L4.19543 236.267L11.6268 229.96L11.7354 221.403Z" fill="url(#paint3_linear_102_15)"/>
<path d="M212.507 115.989L205.653 117.383L201.597 124.485L201.066 116.324L195.516 112.066L202.37 110.672L206.425 103.573L206.957 111.734L212.507 115.989Z" fill="url(#paint4_linear_102_15)"/>
</svg>
