<svg width="312" height="315" viewBox="0 0 312 315" fill="none" xmlns="http://www.w3.org/2000/svg">
    <defs>
        <filter id="filter0_d_120_333" x="2.92969" y="4.33325" width="308.802" height="310.269" filterUnits="userSpaceOnUse" color-interpolation-filters="sRGB">
            <feFlood flood-opacity="0" result="BackgroundImageFix"/>
            <feColorMatrix in="SourceAlpha" type="matrix" values="0 0 0 0 0 0 0 0 0 0 0 0 0 0 0 0 0 0 127 0" result="hardAlpha"/>
            <feOffset dx="10" dy="2"/>
            <feGaussianBlur stdDeviation="15"/>
            <feColorMatrix type="matrix" values="0 0 0 0 0 0 0 0 0 0 0 0 0 0 0 0 0 0 0.25 0"/>
            <feBlend mode="normal" in2="BackgroundImageFix" result="effect1_dropShadow_120_333"/>
            <feBlend mode="normal" in="SourceGraphic" in2="effect1_dropShadow_120_333" result="shape"/>
        </filter>
        <linearGradient id="paint0_linear_120_333" x1="60.5403" y1="69.9343" x2="235.898" y2="246.336" gradientUnits="userSpaceOnUse">
            <stop stop-color="#6F7BF7"/>
            <stop offset="1" stop-color="#9F7EFD"/>
        </linearGradient>
        <linearGradient id="paint1_linear_120_333" x1="87.2453" y1="0" x2="87.2453" y2="27.9656" gradientUnits="userSpaceOnUse">
            <stop stop-color="#6F7BF7"/>
            <stop offset="1" stop-color="#9F7EFD"/>
        </linearGradient>
        <linearGradient id="paint2_linear_120_333" x1="273.015" y1="239.706" x2="273.015" y2="262.677" gradientUnits="userSpaceOnUse">
            <stop stop-color="#6F7BF7"/>
            <stop offset="1" stop-color="#9F7EFD"/>
        </linearGradient>
        <linearGradient id="paint3_linear_120_333" x1="217.689" y1="31.9713" x2="223.934" y2="55.2639" gradientUnits="userSpaceOnUse">
            <stop stop-color="#6F7BF7"/>
            <stop offset="1" stop-color="#9F7EFD"/>
        </linearGradient>
        <linearGradient id="paint4_linear_120_333" x1="11.7201" y1="221.131" x2="20.103" y2="240.877" gradientUnits="userSpaceOnUse">
            <stop stop-color="#6F7BF7"/>
            <stop offset="1" stop-color="#9F7EFD"/>
        </linearGradient>
        <linearGradient id="paint5_linear_120_333" x1="212.245" y1="115.848" x2="195.275" y2="111.93" gradientUnits="userSpaceOnUse">
            <stop stop-color="#6F7BF7"/>
            <stop offset="1" stop-color="#9F7EFD"/>
        </linearGradient>
    </defs>
<g filter="url(#filter0_d_120_333)">
<path d="M147.564 282.602C139.136 282.605 130.729 281.753 122.472 280.061C106.537 276.778 91.4077 270.38 77.9532 261.232C59.313 248.598 44.4202 231.176 34.84 210.798C25.2598 190.419 21.346 167.836 23.5098 145.422C25.6737 123.008 33.8354 101.591 47.1372 83.4218C60.4389 65.2523 78.3894 51.0015 99.1022 42.167C106.632 38.9681 114.461 36.5257 122.473 34.876C135.512 32.2083 148.893 31.6351 162.112 33.1781C159.297 39.3339 157.143 45.771 155.687 52.3815C152.793 65.5984 152.692 79.2743 155.393 92.5321C157.913 104.836 162.831 116.523 169.866 126.927C176.787 137.169 185.607 145.99 195.848 152.912C200.995 156.389 206.467 159.358 212.187 161.78C218.006 164.24 224.054 166.117 230.243 167.385C243.954 170.178 258.107 169.974 271.731 166.786C269.435 198.139 255.425 227.48 232.487 248.978C209.504 270.607 179.124 282.636 147.564 282.602V282.602Z" fill="url(#paint0_linear_120_333)"/>
</g>
<path d="M87.2453 0L91.2903 10.2075L102.227 13.9828L91.2903 17.7582L87.2453 27.9656L83.2002 17.7582L72.2637 13.9828L83.2002 10.2075L87.2453 0Z" fill="url(#paint1_linear_120_333)"/>
<path d="M273.015 239.706L276.521 248.095L285.999 251.191L276.521 254.288L273.015 262.677L269.51 254.288L260.031 251.191L269.51 248.095L273.015 239.706Z" fill="url(#paint2_linear_120_333)"/>
<path d="M217.688 31.9715L223.462 39.5365L233.753 40.1478L225.148 45.8251L223.933 55.264L218.16 47.6997L207.87 47.0884L216.474 41.4101L217.688 31.9715Z" fill="url(#paint3_linear_120_333)"/>
<path d="M11.721 221.131L17.9443 226.993L27.6316 226.029L20.2093 232.328L20.1039 240.877L13.8768 235.011L4.19028 235.977L11.6126 229.678L11.721 221.131Z" fill="url(#paint4_linear_120_333)"/>
<path d="M212.245 115.847L205.4 117.239L201.349 124.333L200.818 116.181L195.275 111.929L202.121 110.537L206.171 103.446L206.702 111.597L212.245 115.847Z" fill="url(#paint5_linear_120_333)"/>
</svg>
