<svg width="352" height="315" viewBox="0 0 352 315" fill="none" xmlns="http://www.w3.org/2000/svg">
    <defs>
        <linearGradient id="paint0_linear_102_699" x1="154.44" y1="65.9561" x2="220.483" y2="257.168" gradientUnits="userSpaceOnUse">
            <stop stop-color="white"/>
            <stop offset="1" stop-color="#F7F7F7" stop-opacity="0.8"/>
        </linearGradient>
    </defs>
<path d="M121.054 239.122C123.345 239.151 146.563 275.402 146.563 289.491C146.563 296.256 143.875 302.745 139.092 307.529C134.308 312.313 127.819 315 121.054 315C114.289 315 107.8 312.313 103.016 307.529C98.2325 302.745 95.5449 296.256 95.5449 289.491C95.5449 275.402 118.765 239.097 121.054 239.122Z" fill="#42A0F0"/>
<path d="M261.356 239.122C263.647 239.151 286.865 275.402 286.865 289.491C286.865 296.256 284.177 302.745 279.393 307.529C274.609 312.313 268.121 315 261.356 315C254.59 315 248.102 312.313 243.318 307.529C238.534 302.745 235.847 296.256 235.847 289.491C235.847 275.402 259.067 239.097 261.356 239.122Z" fill="#42A0F0"/>
<path d="M185.91 191.295C188.201 191.324 211.419 227.575 211.419 241.664C211.419 248.429 208.731 254.918 203.947 259.702C199.164 264.485 192.675 267.173 185.91 267.173C179.144 267.173 172.656 264.485 167.872 259.702C163.088 254.918 160.401 248.429 160.401 241.664C160.401 227.575 183.621 191.27 185.91 191.295Z" fill="#42A0F0"/>
<path d="M95.5 169C136.093 169 169 136.093 169 95.5C169 54.9071 136.093 22 95.5 22C54.9071 22 22 54.9071 22 95.5C22 136.093 54.9071 169 95.5 169Z" fill="#FBD07C"/>
<path d="M95.5 186C145.482 186 186 145.482 186 95.5C186 45.5182 145.482 5 95.5 5C45.5182 5 5 45.5182 5 95.5C5 145.482 45.5182 186 95.5 186Z" stroke="#FBD07C" stroke-width="10" stroke-linecap="round" stroke-dasharray="1 66"/>
<path d="M235.839 245.765C233.906 245.92 231.953 245.999 229.982 246H92.458C82.9918 246.035 73.6117 244.201 64.8559 240.603C56.1 237.005 48.1407 231.714 41.4346 225.032C34.7284 218.351 29.4073 210.412 25.7766 201.669C22.1458 192.927 20.2769 183.554 20.2769 174.087C20.2769 164.621 22.1458 155.248 25.7766 146.506C29.4073 137.763 34.7284 129.824 41.4346 123.143C48.1407 116.461 56.1 111.17 64.8559 107.572C73.6117 103.974 82.9918 102.14 92.458 102.175H143.734C160.358 65.6 198.645 40 243.218 40C303.045 40 351.545 86.115 351.545 143C351.545 199.885 303.045 246 243.218 246C240.738 246 238.278 245.922 235.839 245.765Z" fill="url(#paint0_linear_102_699)"/>
<path d="M243.217 245C250.503 245 257.784 244.302 264.858 242.926C271.751 241.585 278.531 239.584 285.01 236.978C291.371 234.42 297.506 231.254 303.244 227.568C308.927 223.917 314.271 219.725 319.128 215.107C323.983 210.49 328.391 205.411 332.229 200.009C336.103 194.557 339.431 188.728 342.118 182.686C344.856 176.532 346.958 170.093 348.367 163.547C349.812 156.831 350.545 149.917 350.545 143C350.545 136.082 349.812 129.169 348.367 122.452C346.958 115.906 344.856 109.467 342.118 103.314C339.431 97.2716 336.103 91.4433 332.229 85.991C328.391 80.5893 323.983 75.5095 319.128 70.8928C314.271 66.2752 308.927 62.0829 303.244 58.4323C297.506 54.7461 291.371 51.5801 285.01 49.0221C278.531 46.4165 271.751 44.4154 264.858 43.0742C257.784 41.6979 250.503 41 243.217 41C221.847 41 201.208 46.9523 183.531 58.2135C175.011 63.6418 167.354 70.1939 160.774 77.6878C154.153 85.2291 148.726 93.6069 144.644 102.588L144.377 103.175H143.733H92.4576C82.884 103.175 73.5974 105.049 64.8555 108.747C60.6539 110.524 56.6013 112.724 52.8104 115.285C49.0553 117.822 45.524 120.735 42.3148 123.945C39.1056 127.154 36.1921 130.685 33.6551 134.44C31.094 138.231 28.8944 142.284 27.1172 146.485C23.4197 155.227 21.5449 164.514 21.5449 174.087C21.5449 183.661 23.4197 192.948 27.1172 201.689C28.8944 205.891 31.094 209.944 33.6551 213.735C36.1921 217.49 39.1056 221.021 42.3148 224.23C45.524 227.439 49.0553 230.353 52.8104 232.89C56.6013 235.451 60.6539 237.651 64.8555 239.428C73.5974 243.125 82.884 245 92.4576 245H229.982C231.905 245 233.849 244.922 235.759 244.768L235.831 244.762L235.903 244.767C238.323 244.922 240.783 245 243.217 245ZM243.217 246C240.738 246 238.277 245.921 235.839 245.765C233.909 245.92 231.953 246 229.982 246H92.4576C52.7415 246 20.5449 213.803 20.5449 174.087C20.5449 134.371 52.7415 102.175 92.4576 102.175H143.733C160.358 65.5954 198.643 40 243.217 40C303.045 40 351.545 86.1151 351.545 143C351.545 199.885 303.045 246 243.217 246Z" fill="white" fill-opacity="0.5"/>
</svg>
