<svg width="332" height="307" viewBox="0 0 332 307" fill="none" xmlns="http://www.w3.org/2000/svg">
    <defs>
        <linearGradient id="paint0_linear_102_251" x1="134.164" y1="25.9561" x2="200.206" y2="217.168" gradientUnits="userSpaceOnUse">
            <stop stop-color="white"/>
            <stop offset="1" stop-color="#F7F7F7" stop-opacity="0.8"/>
        </linearGradient>
    </defs>
<path d="M103.667 175.237C104.196 175.72 93.1271 199.528 86.6951 206.927C80.2631 214.327 72.3507 217.981 69.024 215.089C65.6972 212.197 68.2142 203.854 74.6462 196.455C81.0782 189.056 103.138 174.754 103.667 175.237Z" fill="#42A0F0"/>
<path d="M171.667 175.237C172.196 175.72 161.127 199.528 154.695 206.927C148.263 214.327 140.351 217.981 137.024 215.089C133.697 212.197 136.214 203.854 142.646 196.455C149.078 189.056 171.138 174.754 171.667 175.237Z" fill="#42A0F0"/>
<path d="M239.667 175.237C240.196 175.72 229.127 199.528 222.695 206.927C216.263 214.327 208.351 217.981 205.024 215.089C201.697 212.197 204.214 203.854 210.646 196.455C217.078 189.056 239.138 174.754 239.667 175.237Z" fill="#42A0F0"/>
<path d="M179.667 225.237C180.196 225.72 169.127 249.528 162.695 256.927C156.263 264.327 148.351 267.981 145.024 265.089C141.697 262.197 144.214 253.854 150.646 246.455C157.078 239.056 179.138 224.754 179.667 225.237Z" fill="#42A0F0"/>
<path d="M262.667 225.237C263.196 225.72 252.127 249.528 245.695 256.927C239.263 264.327 231.351 267.981 228.024 265.089C224.697 262.197 227.214 253.854 233.646 246.455C240.078 239.056 262.138 224.754 262.667 225.237Z" fill="#42A0F0"/>
<path d="M202.667 261.237C203.196 261.72 192.127 285.528 185.695 292.927C179.263 300.327 171.351 303.981 168.024 301.089C164.697 298.197 167.214 289.854 173.646 282.455C180.078 275.056 202.138 260.754 202.667 261.237Z" fill="#42A0F0"/>
<path d="M126.667 261.237C127.196 261.72 116.127 285.528 109.695 292.927C103.263 300.327 95.3507 303.981 92.024 301.089C88.6972 298.197 91.2142 289.854 97.6462 282.455C104.078 275.056 126.138 260.754 126.667 261.237Z" fill="#42A0F0"/>
<path d="M103.667 225.237C104.196 225.72 93.1271 249.528 86.6951 256.927C80.2631 264.327 72.3507 267.981 69.024 265.089C65.6972 262.197 68.2142 253.854 74.6462 246.455C81.0782 239.056 103.138 224.754 103.667 225.237Z" fill="#42A0F0"/>
<path d="M215.562 205.765C213.629 205.92 211.676 205.999 209.705 206H72.1812C62.7149 206.035 53.3348 204.201 44.579 200.603C35.8232 197.005 27.8639 191.714 21.1577 185.032C14.4516 178.351 9.13049 170.412 5.49974 161.669C1.86898 152.927 0 143.554 0 134.087C0 124.621 1.86898 115.248 5.49974 106.506C9.13049 97.7633 14.4516 89.8238 21.1577 83.1426C27.8639 76.4614 35.8232 71.17 44.579 67.5718C53.3348 63.9737 62.7149 62.1397 72.1812 62.175H123.457C140.081 25.6 178.368 0 222.941 0C282.768 0 331.268 46.115 331.268 103C331.268 159.885 282.768 206 222.941 206C220.461 206 218.001 205.922 215.562 205.765Z" fill="url(#paint0_linear_102_251)"/>
<path d="M222.941 205C230.227 205 237.508 204.302 244.581 202.926C251.475 201.585 258.255 199.584 264.733 196.978C271.094 194.42 277.229 191.254 282.967 187.568C288.65 183.917 293.994 179.725 298.851 175.107C303.706 170.49 308.114 165.411 311.952 160.009C315.826 154.557 319.154 148.728 321.842 142.686C324.579 136.532 326.681 130.093 328.09 123.547C329.535 116.831 330.268 109.917 330.268 103C330.268 96.0819 329.535 89.1687 328.09 82.4522C326.681 75.9062 324.579 69.4673 321.842 63.3142C319.154 57.2716 315.826 51.4433 311.952 45.991C308.114 40.5893 303.706 35.5095 298.851 30.8928C293.994 26.2752 288.65 22.0829 282.967 18.4323C277.229 14.7461 271.094 11.5801 264.733 9.02208C258.255 6.41654 251.475 4.41537 244.581 3.07421C237.508 1.69788 230.227 1 222.941 1C201.57 1 180.931 6.95233 163.254 18.2135C154.734 23.6418 147.077 30.1939 140.497 37.6878C133.876 45.2291 128.449 53.6069 124.367 62.5885L124.1 63.1747H123.456H72.1807C62.6072 63.1747 53.3205 65.0495 44.5787 68.747C40.3771 70.5242 36.3245 72.7238 32.5336 75.2849C28.7784 77.8219 25.2472 80.7354 22.038 83.9446C18.8288 87.1538 15.9152 90.685 13.3783 94.4402C10.8172 98.2311 8.61752 102.284 6.84036 106.485C3.14286 115.227 1.26807 124.514 1.26807 134.087C1.26807 143.661 3.14286 152.948 6.84036 161.689C8.61752 165.891 10.8172 169.944 13.3783 173.735C15.9152 177.49 18.8288 181.021 22.038 184.23C25.2472 187.439 28.7784 190.353 32.5336 192.89C36.3245 195.451 40.3771 197.651 44.5787 199.428C53.3205 203.125 62.6072 205 72.1807 205H209.705C211.628 205 213.572 204.922 215.482 204.768L215.554 204.762L215.626 204.767C218.046 204.922 220.507 205 222.941 205ZM222.941 206C220.461 206 218 205.921 215.562 205.765C213.632 205.92 211.676 206 209.705 206H72.1807C32.4646 206 0.268066 173.803 0.268066 134.087C0.268066 94.3713 32.4646 62.1747 72.1807 62.1747H123.456C140.081 25.5954 178.366 0 222.941 0C282.768 0 331.268 46.1151 331.268 103C331.268 159.885 282.768 206 222.941 206Z" fill="white" fill-opacity="0.5"/>
</svg>
