<svg width="418" height="303" viewBox="0 0 418 303" fill="none" xmlns="http://www.w3.org/2000/svg">
    <defs>
        <filter id="filter0_d_120_277" x="0.0371094" y="4.79297" width="212.308" height="213.207" filterUnits="userSpaceOnUse" color-interpolation-filters="sRGB">
            <feFlood flood-opacity="0" result="BackgroundImageFix"/>
            <feColorMatrix in="SourceAlpha" type="matrix" values="0 0 0 0 0 0 0 0 0 0 0 0 0 0 0 0 0 0 127 0" result="hardAlpha"/>
            <feOffset dx="10" dy="2"/>
            <feGaussianBlur stdDeviation="15"/>
            <feColorMatrix type="matrix" values="0 0 0 0 0 0 0 0 0 0 0 0 0 0 0 0 0 0 0.25 0"/>
            <feBlend mode="normal" in2="BackgroundImageFix" result="effect1_dropShadow_120_277"/>
            <feBlend mode="normal" in="SourceGraphic" in2="effect1_dropShadow_120_277" result="shape"/>
        </filter>
        <filter id="filter1_d_120_277" x="26.2188" y="0" width="391.269" height="266" filterUnits="userSpaceOnUse" color-interpolation-filters="sRGB">
            <feFlood flood-opacity="0" result="BackgroundImageFix"/>
            <feColorMatrix in="SourceAlpha" type="matrix" values="0 0 0 0 0 0 0 0 0 0 0 0 0 0 0 0 0 0 127 0" result="hardAlpha"/>
            <feOffset dx="10" dy="2"/>
            <feGaussianBlur stdDeviation="15"/>
            <feColorMatrix type="matrix" values="0 0 0 0 0 0 0 0 0 0 0 0 0 0 0 0 0 0 0.25 0"/>
            <feBlend mode="normal" in2="BackgroundImageFix" result="effect1_dropShadow_120_277"/>
            <feBlend mode="normal" in="SourceGraphic" in2="effect1_dropShadow_120_277" result="shape"/>
        </filter>
        <linearGradient id="paint0_linear_120_277" x1="43.0611" y1="55.8111" x2="150.409" y2="163.798" gradientUnits="userSpaceOnUse">
            <stop stop-color="#6F7BF7"/>
            <stop offset="1" stop-color="#9F7EFD"/>
        </linearGradient>
        <linearGradient id="paint1_linear_120_277" x1="59.4085" y1="13" x2="59.4085" y2="30.1196" gradientUnits="userSpaceOnUse">
            <stop stop-color="#6F7BF7"/>
            <stop offset="1" stop-color="#9F7EFD"/>
        </linearGradient>
        <linearGradient id="paint2_linear_120_277" x1="173.131" y1="159.74" x2="173.131" y2="173.802" gradientUnits="userSpaceOnUse">
            <stop stop-color="#6F7BF7"/>
            <stop offset="1" stop-color="#9F7EFD"/>
        </linearGradient>
        <linearGradient id="paint3_linear_120_277" x1="139.262" y1="32.5717" x2="143.085" y2="46.8306" gradientUnits="userSpaceOnUse">
            <stop stop-color="#6F7BF7"/>
            <stop offset="1" stop-color="#9F7EFD"/>
        </linearGradient>
        <linearGradient id="paint4_linear_120_277" x1="13.1746" y1="148.37" x2="18.3064" y2="160.457" gradientUnits="userSpaceOnUse">
            <stop stop-color="#6F7BF7"/>
            <stop offset="1" stop-color="#9F7EFD"/>
        </linearGradient>
        <linearGradient id="paint5_linear_120_277" x1="135.929" y1="83.9186" x2="125.541" y2="81.5202" gradientUnits="userSpaceOnUse">
            <stop stop-color="#6F7BF7"/>
            <stop offset="1" stop-color="#9F7EFD"/>
        </linearGradient>
        <linearGradient id="paint6_linear_120_277" x1="180.382" y1="53.9561" x2="246.424" y2="245.168" gradientUnits="userSpaceOnUse">
            <stop stop-color="white"/>
            <stop offset="1" stop-color="#F7F7F7" stop-opacity="0.8"/>
        </linearGradient>
    </defs>
<path d="M146.996 227.122C149.287 227.151 172.505 263.402 172.505 277.491C172.505 284.256 169.818 290.745 165.034 295.529C160.25 300.313 153.762 303 146.996 303C140.231 303 133.743 300.313 128.959 295.529C124.175 290.745 121.487 284.256 121.487 277.491C121.487 263.402 144.707 227.097 146.996 227.122Z" fill="#42A0F0"/>
<path d="M287.298 227.122C289.589 227.151 312.807 263.402 312.807 277.491C312.807 284.256 310.12 290.745 305.336 295.529C300.552 300.313 294.063 303 287.298 303C280.533 303 274.044 300.313 269.26 295.529C264.477 290.745 261.789 284.256 261.789 277.491C261.789 263.402 285.009 227.097 287.298 227.122Z" fill="#42A0F0"/>
<path d="M211.853 179.295C214.144 179.324 237.362 215.575 237.362 229.664C237.362 236.429 234.674 242.918 229.89 247.702C225.106 252.485 218.618 255.173 211.853 255.173C205.087 255.173 198.599 252.485 193.815 247.702C189.031 242.918 186.344 236.429 186.344 229.664C186.344 215.575 209.564 179.27 211.853 179.295Z" fill="#42A0F0"/>
<g filter="url(#filter0_d_120_277)">
<path d="M96.3339 186C91.1745 186.001 86.0283 185.479 80.9739 184.444C71.2189 182.434 61.9571 178.517 53.7207 172.917C42.3098 165.183 33.1929 154.518 27.3282 142.043C21.4635 129.568 19.0676 115.744 20.3923 102.022C21.7169 88.3014 26.7133 75.1905 34.8561 64.0677C42.999 52.9449 53.9877 44.221 66.6674 38.8129C71.2767 36.8546 76.0694 35.3595 80.9745 34.3495C88.9564 32.7165 97.1475 32.3656 105.24 33.3101C103.516 37.0785 102.198 41.0191 101.307 45.0658C99.5349 53.1568 99.4736 61.5287 101.127 69.6447C102.669 77.1767 105.68 84.3313 109.987 90.7001C114.223 96.9701 119.623 102.37 125.892 106.607C129.043 108.736 132.393 110.554 135.894 112.036C139.456 113.542 143.159 114.691 146.948 115.467C155.341 117.177 164.005 117.052 172.345 115.1C170.939 134.294 162.363 152.256 148.321 165.416C134.252 178.656 115.654 186.02 96.3339 186V186Z" fill="url(#paint0_linear_120_277)"/>
</g>
<path d="M59.4085 13L61.8848 19.2487L68.5798 21.5598L61.8848 23.871L59.4085 30.1196L56.9323 23.871L50.2373 21.5598L56.9323 19.2487L59.4085 13Z" fill="url(#paint1_linear_120_277)"/>
<path d="M173.131 159.74L175.277 164.876L181.079 166.771L175.277 168.666L173.131 173.802L170.985 168.666L165.183 166.771L170.985 164.876L173.131 159.74Z" fill="url(#paint2_linear_120_277)"/>
<path d="M139.262 32.5718L142.797 37.2028L149.096 37.577L143.829 41.0525L143.085 46.8307L139.551 42.2001L133.252 41.8259L138.519 38.3498L139.262 32.5718Z" fill="url(#paint3_linear_120_277)"/>
<path d="M13.1752 148.369L16.9849 151.958L22.9151 151.368L18.3715 155.224L18.3069 160.457L14.4949 156.866L8.56515 157.458L13.1088 153.601L13.1752 148.369Z" fill="url(#paint4_linear_120_277)"/>
<path d="M135.929 83.9177L131.739 84.77L129.259 89.1127L128.934 84.1224L125.541 81.5193L129.732 80.6671L132.211 76.3262L132.536 81.3164L135.929 83.9177Z" fill="url(#paint5_linear_120_277)"/>
<g filter="url(#filter1_d_120_277)">
<path d="M261.781 233.765C259.848 233.92 257.895 233.999 255.924 234H118.4C108.934 234.035 99.5536 232.201 90.7978 228.603C82.0419 225.005 74.0826 219.714 67.3765 213.032C60.6703 206.351 55.3492 198.412 51.7185 189.669C48.0877 180.927 46.2187 171.554 46.2188 162.087C46.2187 152.621 48.0877 143.248 51.7185 134.506C55.3492 125.763 60.6703 117.824 67.3765 111.143C74.0826 104.461 82.0419 99.17 90.7978 95.5718C99.5536 91.9737 108.934 90.1397 118.4 90.175H169.676C186.3 53.6 224.587 28 269.16 28C328.987 28 377.487 74.115 377.487 131C377.487 187.885 328.987 234 269.16 234C266.68 234 264.22 233.922 261.781 233.765Z" fill="url(#paint6_linear_120_277)"/>
<path d="M269.16 233C276.446 233 283.727 232.302 290.801 230.926C297.694 229.585 304.474 227.584 310.953 224.978C317.313 222.42 323.448 219.254 329.186 215.568C334.87 211.917 340.214 207.725 345.07 203.107C349.926 198.49 354.333 193.411 358.172 188.009C362.046 182.557 365.373 176.728 368.061 170.686C370.798 164.532 372.9 158.093 374.309 151.547C375.755 144.831 376.488 137.917 376.488 131C376.488 124.082 375.755 117.169 374.309 110.452C372.9 103.906 370.798 97.4673 368.061 91.3142C365.373 85.2716 362.046 79.4433 358.172 73.991C354.333 68.5893 349.926 63.5095 345.07 58.8928C340.214 54.2752 334.87 50.0829 329.186 46.4323C323.448 42.7461 317.313 39.5801 310.953 37.0221C304.474 34.4165 297.694 32.4154 290.801 31.0742C283.727 29.6979 276.446 29 269.16 29C247.789 29 227.15 34.9523 209.474 46.2135C200.953 51.6418 193.297 58.1939 186.717 65.6878C180.095 73.2291 174.668 81.6069 170.586 90.5885L170.32 91.1747H169.676H118.4C108.826 91.1747 99.5398 93.0495 90.7979 96.747C86.5963 98.5242 82.5437 100.724 78.7528 103.285C74.9976 105.822 71.4664 108.735 68.2572 111.945C65.048 115.154 62.1345 118.685 59.5975 122.44C57.0364 126.231 54.8368 130.284 53.0596 134.485C49.3621 143.227 47.4873 152.514 47.4873 162.087C47.4873 171.661 49.3621 180.948 53.0596 189.689C54.8368 193.891 57.0364 197.944 59.5975 201.735C62.1345 205.49 65.048 209.021 68.2572 212.23C71.4664 215.439 74.9976 218.353 78.7528 220.89C82.5437 223.451 86.5963 225.651 90.7979 227.428C99.5398 231.125 108.826 233 118.4 233H255.924C257.847 233 259.791 232.922 261.701 232.768L261.773 232.762L261.846 232.767C264.265 232.922 266.726 233 269.16 233ZM269.16 234C266.68 234 264.22 233.921 261.782 233.765C259.851 233.92 257.895 234 255.924 234H118.4C78.6839 234 46.4873 201.803 46.4873 162.087C46.4873 122.371 78.6839 90.1747 118.4 90.1747H169.676C186.3 53.5954 224.585 28 269.16 28C328.987 28 377.488 74.1151 377.488 131C377.488 187.885 328.987 234 269.16 234Z" fill="white" fill-opacity="0.5"/>
</g>
</svg>
