<svg width="332" height="292" viewBox="0 0 332 292" fill="none" xmlns="http://www.w3.org/2000/svg">
    <defs>
        <linearGradient id="paint0_linear_4_31" x1="134.164" y1="25.9561" x2="200.206" y2="217.168" gradientUnits="userSpaceOnUse">
            <stop stop-color="white"/>
            <stop offset="1" stop-color="#F7F7F7" stop-opacity="0.8"/>
        </linearGradient>
    </defs>
<path d="M166.431 146.204V275.75" stroke="#42A0F0" stroke-width="10" stroke-linecap="round"/>
<path d="M166.171 177.87L188.482 154.84" stroke="#42A0F0" stroke-width="10" stroke-linecap="round"/>
<path d="M166.171 177.87L143.141 154.84" stroke="#42A0F0" stroke-width="10" stroke-linecap="round"/>
<path d="M166.171 246.962L188.482 269.992" stroke="#42A0F0" stroke-width="10" stroke-linecap="round"/>
<path d="M166.171 246.962L143.141 269.992" stroke="#42A0F0" stroke-width="10" stroke-linecap="round"/>
<path d="M222.216 179.127L110.026 243.9" stroke="#42A0F0" stroke-width="10" stroke-linecap="round"/>
<path d="M194.662 194.734L225.762 202.541" stroke="#42A0F0" stroke-width="10" stroke-linecap="round"/>
<path d="M194.662 194.734L203.092 163.275" stroke="#42A0F0" stroke-width="10" stroke-linecap="round"/>
<path d="M134.827 229.28L126.038 260.117" stroke="#42A0F0" stroke-width="10" stroke-linecap="round"/>
<path d="M134.827 229.281L103.367 220.851" stroke="#42A0F0" stroke-width="10" stroke-linecap="round"/>
<path d="M221.597 243.9L109.407 179.127" stroke="#42A0F0" stroke-width="10" stroke-linecap="round"/>
<path d="M194.303 227.841L203.093 258.678" stroke="#42A0F0" stroke-width="10" stroke-linecap="round"/>
<path d="M194.304 227.842L225.763 219.412" stroke="#42A0F0" stroke-width="10" stroke-linecap="round"/>
<path d="M134.468 193.295L103.368 201.102" stroke="#42A0F0" stroke-width="10" stroke-linecap="round"/>
<path d="M134.468 193.296L126.039 161.836" stroke="#42A0F0" stroke-width="10" stroke-linecap="round"/>
<path d="M118.864 120.295V129.143" stroke="#42A0F0" stroke-linecap="round"/>
<path d="M118.672 122.454L120.111 121.734" stroke="#42A0F0" stroke-linecap="round"/>
<path d="M118.672 122.454L116.513 121.734" stroke="#42A0F0" stroke-linecap="round"/>
<path d="M118.672 127.492L120.111 128.212" stroke="#42A0F0" stroke-linecap="round"/>
<path d="M118.672 127.492L116.513 128.212" stroke="#42A0F0" stroke-linecap="round"/>
<path d="M122.673 122.544L115.011 126.968" stroke="#42A0F0" stroke-linecap="round"/>
<path d="M120.792 123.61L122.916 124.143" stroke="#42A0F0" stroke-linecap="round"/>
<path d="M120.791 123.61L121.367 121.461" stroke="#42A0F0" stroke-linecap="round"/>
<path d="M116.705 125.969L116.104 128.076" stroke="#42A0F0" stroke-linecap="round"/>
<path d="M116.704 125.969L114.556 125.393" stroke="#42A0F0" stroke-linecap="round"/>
<path d="M122.63 126.968L114.968 122.544" stroke="#42A0F0" stroke-linecap="round"/>
<path d="M120.766 125.871L121.366 127.977" stroke="#42A0F0" stroke-linecap="round"/>
<path d="M120.766 125.871L122.915 125.295" stroke="#42A0F0" stroke-linecap="round"/>
<path d="M116.679 123.511L114.555 124.045" stroke="#42A0F0" stroke-linecap="round"/>
<path d="M116.679 123.511L116.104 121.362" stroke="#42A0F0" stroke-linecap="round"/>
<path d="M240.934 139.885V155.053" stroke="#42A0F0" stroke-linecap="round"/>
<path d="M240.302 143.326L243.181 142.606" stroke="#42A0F0" stroke-linecap="round"/>
<path d="M240.302 143.326L236.703 142.606" stroke="#42A0F0" stroke-linecap="round"/>
<path d="M240.302 151.962L243.181 153.401" stroke="#42A0F0" stroke-linecap="round"/>
<path d="M240.302 151.962L236.703 153.401" stroke="#42A0F0" stroke-linecap="round"/>
<path d="M247.465 143.74L234.329 151.324" stroke="#42A0F0" stroke-linecap="round"/>
<path d="M244.24 145.566L247.881 146.48" stroke="#42A0F0" stroke-linecap="round"/>
<path d="M244.24 145.566L245.227 141.883" stroke="#42A0F0" stroke-linecap="round"/>
<path d="M237.234 149.611L236.205 153.221" stroke="#42A0F0" stroke-linecap="round"/>
<path d="M237.234 149.611L233.551 148.624" stroke="#42A0F0" stroke-linecap="round"/>
<path d="M247.393 151.324L234.257 143.74" stroke="#42A0F0" stroke-linecap="round"/>
<path d="M244.198 149.444L245.227 153.054" stroke="#42A0F0" stroke-linecap="round"/>
<path d="M244.198 149.443L247.881 148.457" stroke="#42A0F0" stroke-linecap="round"/>
<path d="M237.192 145.398L233.551 146.312" stroke="#42A0F0" stroke-linecap="round"/>
<path d="M237.192 145.398L236.205 141.715" stroke="#42A0F0" stroke-linecap="round"/>
<path d="M231.59 251.439V263.892" stroke="#42A0F0" stroke-linecap="round"/>
<path d="M230.945 254.16L233.104 253.44" stroke="#42A0F0" stroke-linecap="round"/>
<path d="M230.945 254.16L228.066 253.44" stroke="#42A0F0" stroke-linecap="round"/>
<path d="M230.945 261.357L233.104 262.796" stroke="#42A0F0" stroke-linecap="round"/>
<path d="M230.945 261.357L228.066 262.796" stroke="#42A0F0" stroke-linecap="round"/>
<path d="M236.953 254.604L226.168 260.831" stroke="#42A0F0" stroke-linecap="round"/>
<path d="M234.304 256.105L237.294 256.855" stroke="#42A0F0" stroke-linecap="round"/>
<path d="M234.304 256.104L235.114 253.08" stroke="#42A0F0" stroke-linecap="round"/>
<path d="M228.552 259.425L227.707 262.389" stroke="#42A0F0" stroke-linecap="round"/>
<path d="M228.552 259.425L225.528 258.614" stroke="#42A0F0" stroke-linecap="round"/>
<path d="M236.893 260.83L226.108 254.604" stroke="#42A0F0" stroke-linecap="round"/>
<path d="M234.269 259.287L235.114 262.251" stroke="#42A0F0" stroke-linecap="round"/>
<path d="M234.269 259.286L237.293 258.476" stroke="#42A0F0" stroke-linecap="round"/>
<path d="M228.518 255.966L225.528 256.717" stroke="#42A0F0" stroke-linecap="round"/>
<path d="M228.518 255.966L227.707 252.942" stroke="#42A0F0" stroke-linecap="round"/>
<path d="M129.333 280.227V291.196" stroke="#42A0F0" stroke-linecap="round"/>
<path d="M128.748 282.948L130.907 282.228" stroke="#42A0F0" stroke-linecap="round"/>
<path d="M128.747 282.948L126.588 282.228" stroke="#42A0F0" stroke-linecap="round"/>
<path d="M128.748 288.705L130.907 290.144" stroke="#42A0F0" stroke-linecap="round"/>
<path d="M128.747 288.705L126.588 290.144" stroke="#42A0F0" stroke-linecap="round"/>
<path d="M134.057 283.015L124.558 288.5" stroke="#42A0F0" stroke-linecap="round"/>
<path d="M131.724 284.337L134.358 284.998" stroke="#42A0F0" stroke-linecap="round"/>
<path d="M131.724 284.337L132.438 281.673" stroke="#42A0F0" stroke-linecap="round"/>
<path d="M126.657 287.262L125.913 289.873" stroke="#42A0F0" stroke-linecap="round"/>
<path d="M126.657 287.262L123.993 286.548" stroke="#42A0F0" stroke-linecap="round"/>
<path d="M134.004 288.499L124.505 283.015" stroke="#42A0F0" stroke-linecap="round"/>
<path d="M131.693 287.139L132.437 289.75" stroke="#42A0F0" stroke-linecap="round"/>
<path d="M131.693 287.139L134.357 286.425" stroke="#42A0F0" stroke-linecap="round"/>
<path d="M126.626 284.214L123.993 284.875" stroke="#42A0F0" stroke-linecap="round"/>
<path d="M126.626 284.214L125.912 281.55" stroke="#42A0F0" stroke-linecap="round"/>
<path d="M87.9419 234.166V243.063" stroke="#42A0F0" stroke-linecap="round"/>
<path d="M87.7251 236.167L89.1641 235.447" stroke="#42A0F0" stroke-linecap="round"/>
<path d="M87.7249 236.167L85.5659 235.447" stroke="#42A0F0" stroke-linecap="round"/>
<path d="M87.7251 241.205L89.1641 241.925" stroke="#42A0F0" stroke-linecap="round"/>
<path d="M87.7249 241.205L85.5659 241.925" stroke="#42A0F0" stroke-linecap="round"/>
<path d="M91.7725 236.427L84.0674 240.875" stroke="#42A0F0" stroke-linecap="round"/>
<path d="M89.8804 237.499L92.0165 238.035" stroke="#42A0F0" stroke-linecap="round"/>
<path d="M89.8804 237.499L90.4595 235.338" stroke="#42A0F0" stroke-linecap="round"/>
<path d="M85.7715 239.872L85.1674 241.99" stroke="#42A0F0" stroke-linecap="round"/>
<path d="M85.7715 239.872L83.6104 239.293" stroke="#42A0F0" stroke-linecap="round"/>
<path d="M91.731 240.875L84.0259 236.426" stroke="#42A0F0" stroke-linecap="round"/>
<path d="M89.8555 239.773L90.4596 241.891" stroke="#42A0F0" stroke-linecap="round"/>
<path d="M89.8555 239.773L92.0166 239.194" stroke="#42A0F0" stroke-linecap="round"/>
<path d="M85.7466 237.4L83.6105 237.936" stroke="#42A0F0" stroke-linecap="round"/>
<path d="M85.7466 237.4L85.1675 235.239" stroke="#42A0F0" stroke-linecap="round"/>
<path d="M215.562 205.765C213.629 205.92 211.676 205.999 209.705 206H72.1812C62.7149 206.035 53.3348 204.201 44.579 200.603C35.8232 197.005 27.8639 191.714 21.1577 185.032C14.4516 178.351 9.13049 170.412 5.49974 161.669C1.86898 152.927 0 143.554 0 134.087C0 124.621 1.86898 115.248 5.49974 106.506C9.13049 97.7633 14.4516 89.8238 21.1577 83.1426C27.8639 76.4614 35.8232 71.17 44.579 67.5718C53.3348 63.9737 62.7149 62.1397 72.1812 62.175H123.457C140.081 25.6 178.368 0 222.941 0C282.768 0 331.268 46.115 331.268 103C331.268 159.885 282.768 206 222.941 206C220.461 206 218.001 205.922 215.562 205.765Z" fill="url(#paint0_linear_4_31)"/>
<path d="M222.941 205C230.227 205 237.508 204.302 244.581 202.926C251.475 201.585 258.255 199.584 264.733 196.978C271.094 194.42 277.229 191.254 282.967 187.568C288.65 183.917 293.994 179.725 298.851 175.107C303.706 170.49 308.114 165.411 311.952 160.009C315.826 154.557 319.154 148.728 321.842 142.686C324.579 136.532 326.681 130.093 328.09 123.547C329.535 116.831 330.268 109.917 330.268 103C330.268 96.0819 329.535 89.1687 328.09 82.4522C326.681 75.9062 324.579 69.4673 321.842 63.3142C319.154 57.2716 315.826 51.4433 311.952 45.991C308.114 40.5893 303.706 35.5095 298.851 30.8928C293.994 26.2752 288.65 22.0829 282.967 18.4323C277.229 14.7461 271.094 11.5801 264.733 9.02208C258.255 6.41654 251.475 4.41537 244.581 3.07421C237.508 1.69788 230.227 1 222.941 1C201.57 1 180.931 6.95233 163.254 18.2135C154.734 23.6418 147.077 30.1939 140.497 37.6878C133.876 45.2291 128.449 53.6069 124.367 62.5885L124.1 63.1747H123.456H72.1807C62.6072 63.1747 53.3205 65.0495 44.5787 68.747C40.3771 70.5242 36.3245 72.7238 32.5336 75.2849C28.7784 77.8219 25.2472 80.7354 22.038 83.9446C18.8288 87.1538 15.9152 90.685 13.3783 94.4402C10.8172 98.2311 8.61753 102.284 6.84036 106.485C3.14286 115.227 1.26807 124.514 1.26807 134.087C1.26807 143.661 3.14286 152.948 6.84036 161.689C8.61753 165.891 10.8172 169.944 13.3783 173.735C15.9152 177.49 18.8288 181.021 22.038 184.23C25.2472 187.439 28.7784 190.353 32.5336 192.89C36.3245 195.451 40.3771 197.651 44.5787 199.428C53.3205 203.125 62.6072 205 72.1807 205H209.705C211.628 205 213.572 204.922 215.482 204.768L215.554 204.762L215.626 204.767C218.046 204.922 220.507 205 222.941 205ZM222.941 206C220.461 206 218 205.921 215.562 205.765C213.632 205.92 211.676 206 209.705 206H72.1807C32.4646 206 0.268066 173.803 0.268066 134.087C0.268066 94.3713 32.4646 62.1747 72.1807 62.1747H123.456C140.081 25.5954 178.366 0 222.941 0C282.768 0 331.268 46.1151 331.268 103C331.268 159.885 282.768 206 222.941 206Z" fill="white" fill-opacity="0.5"/>
</svg>
