<svg width="337" height="315" viewBox="0 0 337 315" fill="none" xmlns="http://www.w3.org/2000/svg">
    <defs>
        <linearGradient id="paint0_linear_102_313" x1="134.164" y1="25.9561" x2="200.206" y2="217.168" gradientUnits="userSpaceOnUse">
            <stop stop-color="white"/>
            <stop offset="1" stop-color="#F7F7F7" stop-opacity="0.8"/>
        </linearGradient>
    </defs>
<path d="M118.864 120.295V129.143" stroke="#42A0F0" stroke-linecap="round"/>
<path d="M118.672 122.454L120.111 121.734" stroke="#42A0F0" stroke-linecap="round"/>
<path d="M118.672 122.454L116.513 121.734" stroke="#42A0F0" stroke-linecap="round"/>
<path d="M118.672 127.492L120.111 128.212" stroke="#42A0F0" stroke-linecap="round"/>
<path d="M118.672 127.492L116.513 128.212" stroke="#42A0F0" stroke-linecap="round"/>
<path d="M122.674 122.544L115.011 126.968" stroke="#42A0F0" stroke-linecap="round"/>
<path d="M120.792 123.61L122.916 124.143" stroke="#42A0F0" stroke-linecap="round"/>
<path d="M120.792 123.61L121.368 121.461" stroke="#42A0F0" stroke-linecap="round"/>
<path d="M116.705 125.969L116.105 128.076" stroke="#42A0F0" stroke-linecap="round"/>
<path d="M116.705 125.969L114.556 125.393" stroke="#42A0F0" stroke-linecap="round"/>
<path d="M122.631 126.968L114.968 122.544" stroke="#42A0F0" stroke-linecap="round"/>
<path d="M120.767 125.871L121.367 127.977" stroke="#42A0F0" stroke-linecap="round"/>
<path d="M120.767 125.871L122.916 125.295" stroke="#42A0F0" stroke-linecap="round"/>
<path d="M116.68 123.511L114.555 124.045" stroke="#42A0F0" stroke-linecap="round"/>
<path d="M116.68 123.511L116.104 121.362" stroke="#42A0F0" stroke-linecap="round"/>
<path d="M240.934 139.885V155.053" stroke="#42A0F0" stroke-linecap="round"/>
<path d="M240.302 143.326L243.181 142.606" stroke="#42A0F0" stroke-linecap="round"/>
<path d="M240.302 143.326L236.703 142.606" stroke="#42A0F0" stroke-linecap="round"/>
<path d="M240.302 151.962L243.181 153.401" stroke="#42A0F0" stroke-linecap="round"/>
<path d="M240.302 151.962L236.703 153.401" stroke="#42A0F0" stroke-linecap="round"/>
<path d="M247.465 143.74L234.329 151.324" stroke="#42A0F0" stroke-linecap="round"/>
<path d="M244.24 145.566L247.881 146.48" stroke="#42A0F0" stroke-linecap="round"/>
<path d="M244.24 145.566L245.227 141.883" stroke="#42A0F0" stroke-linecap="round"/>
<path d="M237.234 149.611L236.205 153.221" stroke="#42A0F0" stroke-linecap="round"/>
<path d="M237.234 149.611L233.551 148.624" stroke="#42A0F0" stroke-linecap="round"/>
<path d="M247.393 151.324L234.257 143.74" stroke="#42A0F0" stroke-linecap="round"/>
<path d="M244.198 149.444L245.227 153.054" stroke="#42A0F0" stroke-linecap="round"/>
<path d="M244.198 149.443L247.881 148.457" stroke="#42A0F0" stroke-linecap="round"/>
<path d="M237.192 145.398L233.551 146.312" stroke="#42A0F0" stroke-linecap="round"/>
<path d="M237.192 145.398L236.205 141.715" stroke="#42A0F0" stroke-linecap="round"/>
<path d="M329.59 163.439V175.892" stroke="#42A0F0" stroke-linecap="round"/>
<path d="M328.945 166.16L331.104 165.44" stroke="#42A0F0" stroke-linecap="round"/>
<path d="M328.945 166.16L326.066 165.44" stroke="#42A0F0" stroke-linecap="round"/>
<path d="M328.945 173.357L331.104 174.796" stroke="#42A0F0" stroke-linecap="round"/>
<path d="M328.945 173.357L326.066 174.796" stroke="#42A0F0" stroke-linecap="round"/>
<path d="M334.953 166.604L324.169 172.831" stroke="#42A0F0" stroke-linecap="round"/>
<path d="M332.304 168.105L335.294 168.855" stroke="#42A0F0" stroke-linecap="round"/>
<path d="M332.304 168.104L333.115 165.08" stroke="#42A0F0" stroke-linecap="round"/>
<path d="M326.553 171.425L325.708 174.389" stroke="#42A0F0" stroke-linecap="round"/>
<path d="M326.553 171.425L323.528 170.614" stroke="#42A0F0" stroke-linecap="round"/>
<path d="M334.893 172.83L324.108 166.604" stroke="#42A0F0" stroke-linecap="round"/>
<path d="M332.27 171.287L333.115 174.251" stroke="#42A0F0" stroke-linecap="round"/>
<path d="M332.27 171.286L335.294 170.476" stroke="#42A0F0" stroke-linecap="round"/>
<path d="M326.518 167.966L323.528 168.717" stroke="#42A0F0" stroke-linecap="round"/>
<path d="M326.518 167.966L325.708 164.942" stroke="#42A0F0" stroke-linecap="round"/>
<path d="M23.3335 216.227V227.196" stroke="#42A0F0" stroke-linecap="round"/>
<path d="M22.7476 218.948L24.9066 218.228" stroke="#42A0F0" stroke-linecap="round"/>
<path d="M22.7474 218.948L20.5884 218.228" stroke="#42A0F0" stroke-linecap="round"/>
<path d="M22.7476 224.705L24.9066 226.144" stroke="#42A0F0" stroke-linecap="round"/>
<path d="M22.7474 224.705L20.5884 226.144" stroke="#42A0F0" stroke-linecap="round"/>
<path d="M28.0571 219.015L18.5577 224.5" stroke="#42A0F0" stroke-linecap="round"/>
<path d="M25.7243 220.337L28.3576 220.998" stroke="#42A0F0" stroke-linecap="round"/>
<path d="M25.7242 220.337L26.438 217.673" stroke="#42A0F0" stroke-linecap="round"/>
<path d="M20.6572 223.262L19.913 225.873" stroke="#42A0F0" stroke-linecap="round"/>
<path d="M20.6571 223.262L17.9934 222.548" stroke="#42A0F0" stroke-linecap="round"/>
<path d="M28.0044 224.499L18.505 219.015" stroke="#42A0F0" stroke-linecap="round"/>
<path d="M25.6931 223.139L26.4373 225.75" stroke="#42A0F0" stroke-linecap="round"/>
<path d="M25.6932 223.139L28.3569 222.425" stroke="#42A0F0" stroke-linecap="round"/>
<path d="M20.626 220.214L17.9927 220.875" stroke="#42A0F0" stroke-linecap="round"/>
<path d="M20.6261 220.214L19.9123 217.55" stroke="#42A0F0" stroke-linecap="round"/>
<path d="M178.942 258.166V267.063" stroke="#42A0F0" stroke-linecap="round"/>
<path d="M178.726 260.167L180.165 259.447" stroke="#42A0F0" stroke-linecap="round"/>
<path d="M178.725 260.167L176.566 259.447" stroke="#42A0F0" stroke-linecap="round"/>
<path d="M178.726 265.205L180.165 265.925" stroke="#42A0F0" stroke-linecap="round"/>
<path d="M178.725 265.205L176.566 265.925" stroke="#42A0F0" stroke-linecap="round"/>
<path d="M182.773 260.427L175.068 264.875" stroke="#42A0F0" stroke-linecap="round"/>
<path d="M180.881 261.499L183.017 262.035" stroke="#42A0F0" stroke-linecap="round"/>
<path d="M180.881 261.499L181.46 259.338" stroke="#42A0F0" stroke-linecap="round"/>
<path d="M176.772 263.872L176.168 265.99" stroke="#42A0F0" stroke-linecap="round"/>
<path d="M176.772 263.872L174.611 263.293" stroke="#42A0F0" stroke-linecap="round"/>
<path d="M182.731 264.875L175.026 260.426" stroke="#42A0F0" stroke-linecap="round"/>
<path d="M180.856 263.773L181.46 265.891" stroke="#42A0F0" stroke-linecap="round"/>
<path d="M180.856 263.773L183.017 263.194" stroke="#42A0F0" stroke-linecap="round"/>
<path d="M176.747 261.4L174.611 261.936" stroke="#42A0F0" stroke-linecap="round"/>
<path d="M176.747 261.4L176.168 259.239" stroke="#42A0F0" stroke-linecap="round"/>
<path d="M261.976 235.003V311.795" stroke="#42A0F0" stroke-width="6" stroke-linecap="round"/>
<path d="M261.821 253.774L275.046 240.122" stroke="#42A0F0" stroke-width="6" stroke-linecap="round"/>
<path d="M261.821 253.774L248.169 240.122" stroke="#42A0F0" stroke-width="6" stroke-linecap="round"/>
<path d="M261.821 294.73L275.046 308.382" stroke="#42A0F0" stroke-width="6" stroke-linecap="round"/>
<path d="M261.821 294.73L248.169 308.382" stroke="#42A0F0" stroke-width="6" stroke-linecap="round"/>
<path d="M295.043 254.519L228.54 292.915" stroke="#42A0F0" stroke-width="6" stroke-linecap="round"/>
<path d="M278.711 263.77L297.146 268.398" stroke="#42A0F0" stroke-width="6" stroke-linecap="round"/>
<path d="M278.711 263.771L283.708 245.122" stroke="#42A0F0" stroke-width="6" stroke-linecap="round"/>
<path d="M243.242 284.248L238.031 302.527" stroke="#42A0F0" stroke-width="6" stroke-linecap="round"/>
<path d="M243.242 284.248L224.593 279.251" stroke="#42A0F0" stroke-width="6" stroke-linecap="round"/>
<path d="M294.677 292.915L228.173 254.519" stroke="#42A0F0" stroke-width="6" stroke-linecap="round"/>
<path d="M278.497 283.395L283.708 301.674" stroke="#42A0F0" stroke-width="6" stroke-linecap="round"/>
<path d="M278.498 283.395L297.146 278.398" stroke="#42A0F0" stroke-width="6" stroke-linecap="round"/>
<path d="M243.028 262.917L224.593 267.545" stroke="#42A0F0" stroke-width="6" stroke-linecap="round"/>
<path d="M243.028 262.918L238.032 244.269" stroke="#42A0F0" stroke-width="6" stroke-linecap="round"/>
<path d="M174.976 147.003V223.795" stroke="#42A0F0" stroke-width="6" stroke-linecap="round"/>
<path d="M174.821 165.774L188.046 152.122" stroke="#42A0F0" stroke-width="6" stroke-linecap="round"/>
<path d="M174.821 165.774L161.169 152.122" stroke="#42A0F0" stroke-width="6" stroke-linecap="round"/>
<path d="M174.821 206.73L188.046 220.382" stroke="#42A0F0" stroke-width="6" stroke-linecap="round"/>
<path d="M174.821 206.73L161.169 220.382" stroke="#42A0F0" stroke-width="6" stroke-linecap="round"/>
<path d="M208.043 166.519L141.54 204.915" stroke="#42A0F0" stroke-width="6" stroke-linecap="round"/>
<path d="M191.711 175.77L210.146 180.398" stroke="#42A0F0" stroke-width="6" stroke-linecap="round"/>
<path d="M191.711 175.771L196.708 157.122" stroke="#42A0F0" stroke-width="6" stroke-linecap="round"/>
<path d="M156.242 196.248L151.031 214.527" stroke="#42A0F0" stroke-width="6" stroke-linecap="round"/>
<path d="M156.242 196.248L137.593 191.251" stroke="#42A0F0" stroke-width="6" stroke-linecap="round"/>
<path d="M207.677 204.915L141.173 166.519" stroke="#42A0F0" stroke-width="6" stroke-linecap="round"/>
<path d="M191.497 195.395L196.708 213.674" stroke="#42A0F0" stroke-width="6" stroke-linecap="round"/>
<path d="M191.498 195.395L210.146 190.398" stroke="#42A0F0" stroke-width="6" stroke-linecap="round"/>
<path d="M156.028 174.917L137.593 179.545" stroke="#42A0F0" stroke-width="6" stroke-linecap="round"/>
<path d="M156.028 174.918L151.032 156.269" stroke="#42A0F0" stroke-width="6" stroke-linecap="round"/>
<path d="M105.976 235.003V311.795" stroke="#42A0F0" stroke-width="6" stroke-linecap="round"/>
<path d="M105.821 253.774L119.046 240.122" stroke="#42A0F0" stroke-width="6" stroke-linecap="round"/>
<path d="M105.821 253.774L92.1694 240.122" stroke="#42A0F0" stroke-width="6" stroke-linecap="round"/>
<path d="M105.821 294.73L119.046 308.382" stroke="#42A0F0" stroke-width="6" stroke-linecap="round"/>
<path d="M105.821 294.73L92.1694 308.382" stroke="#42A0F0" stroke-width="6" stroke-linecap="round"/>
<path d="M139.043 254.519L72.5396 292.915" stroke="#42A0F0" stroke-width="6" stroke-linecap="round"/>
<path d="M122.711 263.77L141.146 268.398" stroke="#42A0F0" stroke-width="6" stroke-linecap="round"/>
<path d="M122.711 263.771L127.708 245.122" stroke="#42A0F0" stroke-width="6" stroke-linecap="round"/>
<path d="M87.2417 284.248L82.0312 302.527" stroke="#42A0F0" stroke-width="6" stroke-linecap="round"/>
<path d="M87.2415 284.248L68.5925 279.251" stroke="#42A0F0" stroke-width="6" stroke-linecap="round"/>
<path d="M138.677 292.915L72.1729 254.519" stroke="#42A0F0" stroke-width="6" stroke-linecap="round"/>
<path d="M122.497 283.395L127.708 301.674" stroke="#42A0F0" stroke-width="6" stroke-linecap="round"/>
<path d="M122.498 283.395L141.146 278.398" stroke="#42A0F0" stroke-width="6" stroke-linecap="round"/>
<path d="M87.0283 262.917L68.5928 267.545" stroke="#42A0F0" stroke-width="6" stroke-linecap="round"/>
<path d="M87.0285 262.918L82.0315 244.269" stroke="#42A0F0" stroke-width="6" stroke-linecap="round"/>
<path d="M215.562 205.765C213.629 205.92 211.676 205.999 209.705 206H72.1812C62.7149 206.035 53.3348 204.201 44.579 200.603C35.8232 197.005 27.8639 191.714 21.1577 185.032C14.4516 178.351 9.13049 170.412 5.49974 161.669C1.86898 152.927 0 143.554 0 134.087C0 124.621 1.86898 115.248 5.49974 106.506C9.13049 97.7633 14.4516 89.8238 21.1577 83.1426C27.8639 76.4614 35.8232 71.17 44.579 67.5718C53.3348 63.9737 62.7149 62.1397 72.1812 62.175H123.457C140.081 25.6 178.368 0 222.941 0C282.768 0 331.268 46.115 331.268 103C331.268 159.885 282.768 206 222.941 206C220.461 206 218.001 205.922 215.562 205.765Z" fill="url(#paint0_linear_102_313)"/>
<path d="M222.941 205C230.227 205 237.508 204.302 244.581 202.926C251.475 201.585 258.255 199.584 264.733 196.978C271.094 194.42 277.229 191.254 282.967 187.568C288.65 183.917 293.994 179.725 298.851 175.107C303.706 170.49 308.114 165.411 311.952 160.009C315.826 154.557 319.154 148.728 321.842 142.686C324.579 136.532 326.681 130.093 328.09 123.547C329.535 116.831 330.268 109.917 330.268 103C330.268 96.0819 329.535 89.1687 328.09 82.4522C326.681 75.9062 324.579 69.4673 321.842 63.3142C319.154 57.2716 315.826 51.4433 311.952 45.991C308.114 40.5893 303.706 35.5095 298.851 30.8928C293.994 26.2752 288.65 22.0829 282.967 18.4323C277.229 14.7461 271.094 11.5801 264.733 9.02208C258.255 6.41654 251.475 4.41537 244.581 3.07421C237.508 1.69788 230.227 1 222.941 1C201.57 1 180.931 6.95233 163.254 18.2135C154.734 23.6418 147.077 30.1939 140.497 37.6878C133.876 45.2291 128.449 53.6069 124.367 62.5885L124.1 63.1747H123.456H72.1807C62.6072 63.1747 53.3205 65.0495 44.5787 68.747C40.3771 70.5242 36.3245 72.7238 32.5336 75.2849C28.7784 77.8219 25.2472 80.7354 22.038 83.9446C18.8288 87.1538 15.9152 90.685 13.3783 94.4402C10.8172 98.2311 8.61752 102.284 6.84036 106.485C3.14286 115.227 1.26807 124.514 1.26807 134.087C1.26807 143.661 3.14286 152.948 6.84036 161.689C8.61752 165.891 10.8172 169.944 13.3783 173.735C15.9152 177.49 18.8288 181.021 22.038 184.23C25.2472 187.439 28.7784 190.353 32.5336 192.89C36.3245 195.451 40.3771 197.651 44.5787 199.428C53.3205 203.125 62.6072 205 72.1807 205H209.705C211.628 205 213.572 204.922 215.482 204.768L215.554 204.762L215.626 204.767C218.046 204.922 220.507 205 222.941 205ZM222.941 206C220.461 206 218 205.921 215.562 205.765C213.632 205.92 211.676 206 209.705 206H72.1807C32.4646 206 0.268066 173.803 0.268066 134.087C0.268066 94.3713 32.4646 62.1747 72.1807 62.1747H123.456C140.081 25.5954 178.366 0 222.941 0C282.768 0 331.268 46.1151 331.268 103C331.268 159.885 282.768 206 222.941 206Z" fill="white" fill-opacity="0.5"/>
</svg>
