<svg width="332" height="306" viewBox="0 0 332 306" fill="none" xmlns="http://www.w3.org/2000/svg">
    <defs>
        <linearGradient id="paint0_linear_102_1188" x1="95.7181" y1="243.519" x2="79.4498" y2="237.555" gradientUnits="userSpaceOnUse">
            <stop stop-color="#FFDD44"/>
            <stop offset="1" stop-color="#FFF0AA"/>
        </linearGradient>
        <linearGradient id="paint1_linear_102_1188" x1="215.718" y1="212.519" x2="199.45" y2="206.555" gradientUnits="userSpaceOnUse">
            <stop stop-color="#FFDD44"/>
            <stop offset="1" stop-color="#FFF0AA"/>
        </linearGradient>
        <linearGradient id="paint2_linear_102_1188" x1="134.164" y1="25.9561" x2="200.206" y2="217.168" gradientUnits="userSpaceOnUse">
            <stop stop-color="white"/>
            <stop offset="1" stop-color="#DADADA" stop-opacity="0.8"/>
        </linearGradient>
    </defs>
<path d="M104.054 174.835C104.583 175.318 93.5143 199.126 87.0823 206.526C80.6503 213.925 72.7412 217.575 69.4144 214.683C66.0877 211.792 68.6014 203.452 75.0341 196.052C81.4667 188.652 103.526 174.351 104.054 174.835Z" fill="#42A0F0"/>
<path d="M76.1789 201.023C76.8251 202.057 79.0621 201.825 81.1754 200.505C83.2886 199.184 84.4779 197.275 83.8317 196.241C83.1855 195.207 80.9485 195.439 78.8352 196.76C76.722 198.08 75.5327 199.989 76.1789 201.023Z" fill="white"/>
<path d="M172.054 174.835C172.583 175.318 161.514 199.126 155.082 206.526C148.65 213.925 140.741 217.575 137.414 214.683C134.088 211.792 136.601 203.452 143.034 196.052C149.467 188.652 171.526 174.351 172.054 174.835Z" fill="#42A0F0"/>
<path d="M180.054 224.835C180.583 225.318 169.514 249.126 163.082 256.526C156.65 263.925 148.741 267.575 145.414 264.683C142.088 261.792 144.601 253.452 151.034 246.052C157.467 238.652 179.526 224.351 180.054 224.835Z" fill="#42A0F0"/>
<path d="M263.054 224.835C263.583 225.318 252.514 249.126 246.082 256.526C239.65 263.925 231.741 267.575 228.414 264.683C225.088 261.792 227.601 253.452 234.034 246.052C240.467 238.652 262.526 224.351 263.054 224.835Z" fill="#42A0F0"/>
<path d="M203.054 260.835C203.583 261.318 192.514 285.126 186.082 292.526C179.65 299.925 171.741 303.575 168.414 300.683C165.088 297.792 167.601 289.452 174.034 282.052C180.467 274.652 202.526 260.351 203.054 260.835Z" fill="#42A0F0"/>
<path d="M127.054 260.835C127.583 261.318 116.514 285.126 110.082 292.526C103.65 299.925 95.7412 303.575 92.4144 300.683C89.0877 297.792 91.6014 289.452 98.0341 282.052C104.467 274.652 126.526 260.351 127.054 260.835Z" fill="#42A0F0"/>
<path d="M93.7873 217.557H114.337L102.523 234.905L116.336 235.167L87.3483 269.481L94.3683 243.319H81.5083L93.7873 217.557Z" fill="url(#paint0_linear_102_1188)"/>
<path d="M213.787 186.557H234.337L222.523 203.905L236.336 204.167L207.348 238.481L214.368 212.319H201.508L213.787 186.557Z" fill="url(#paint1_linear_102_1188)"/>
<path d="M215.562 205.765C213.629 205.92 211.676 205.999 209.705 206H72.1812C62.7149 206.035 53.3348 204.201 44.579 200.603C35.8232 197.005 27.8639 191.714 21.1577 185.032C14.4516 178.351 9.13049 170.412 5.49974 161.669C1.86898 152.927 0 143.554 0 134.087C0 124.621 1.86898 115.248 5.49974 106.506C9.13049 97.7633 14.4516 89.8238 21.1577 83.1426C27.8639 76.4614 35.8232 71.17 44.579 67.5718C53.3348 63.9737 62.7149 62.1397 72.1812 62.175H123.456C140.081 25.6 178.368 0 222.941 0C282.768 0 331.268 46.115 331.268 103C331.268 159.885 282.768 206 222.941 206C220.461 206 218.001 205.922 215.562 205.765Z" fill="url(#paint2_linear_102_1188)"/>
<path d="M222.941 205C230.227 205 237.508 204.302 244.581 202.926C251.475 201.585 258.255 199.584 264.733 196.978C271.094 194.42 277.229 191.254 282.967 187.568C288.65 183.917 293.994 179.725 298.851 175.108C303.706 170.491 308.114 165.411 311.952 160.009C315.826 154.557 319.154 148.729 321.842 142.686C324.579 136.533 326.681 130.094 328.09 123.548C329.535 116.832 330.268 109.918 330.268 103C330.268 96.0827 329.535 89.1694 328.09 82.4527C326.681 75.9068 324.579 69.4678 321.842 63.3146C319.154 57.272 315.826 51.4435 311.952 45.9912C308.114 40.5895 303.706 35.5097 298.851 30.8929C293.994 26.2753 288.65 22.083 282.967 18.4323C277.229 14.7462 271.094 11.5801 264.733 9.02208C258.255 6.41654 251.475 4.41537 244.581 3.07421C237.508 1.69788 230.227 1 222.941 1C201.57 1 180.931 6.95229 163.254 18.2134C154.734 23.6416 147.077 30.1937 140.497 37.6877C133.875 45.229 128.448 53.6068 124.366 62.5885L124.1 63.1747H123.456H72.1807C62.6072 63.1747 53.3205 65.0495 44.5787 68.747C40.3771 70.5242 36.3245 72.7238 32.5336 75.2849C28.7784 77.8219 25.2472 80.7354 22.038 83.9446C18.8288 87.1538 15.9152 90.685 13.3783 94.4402C10.8172 98.2311 8.61752 102.284 6.84036 106.485C3.14286 115.227 1.26807 124.514 1.26807 134.087C1.26807 143.661 3.14286 152.948 6.84036 161.689C8.61752 165.891 10.8172 169.944 13.3783 173.735C15.9152 177.49 18.8288 181.021 22.038 184.23C25.2472 187.439 28.7784 190.353 32.5336 192.89C36.3245 195.451 40.3771 197.651 44.5787 199.428C53.3205 203.125 62.6072 205 72.1807 205H209.705C211.628 205 213.572 204.922 215.482 204.768L215.554 204.762L215.626 204.767C218.046 204.922 220.507 205 222.941 205ZM222.941 206C220.461 206 218 205.921 215.562 205.765C213.632 205.92 211.676 206 209.705 206H72.1807C32.4646 206 0.268066 173.803 0.268066 134.087C0.268066 94.3713 32.4646 62.1747 72.1807 62.1747H123.456C140.081 25.595 178.366 0 222.941 0C282.768 0 331.268 46.1151 331.268 103C331.268 159.886 282.768 206 222.941 206Z" fill="white" fill-opacity="0.5"/>
</svg>
