<svg width="332" height="313" viewBox="0 0 332 313" fill="none" xmlns="http://www.w3.org/2000/svg">
    <defs>
        <linearGradient id="paint0_linear_102_1177" x1="121.173" y1="221.456" x2="64.3628" y2="200.63" gradientUnits="userSpaceOnUse">
            <stop stop-color="#FFDD44"/>
            <stop offset="1" stop-color="#FFF0AA"/>
        </linearGradient>
        <linearGradient id="paint1_linear_102_1177" x1="228.276" y1="234.363" x2="203.333" y2="225.219" gradientUnits="userSpaceOnUse">
            <stop stop-color="#FFDD44"/>
            <stop offset="1" stop-color="#FFF0AA"/>
        </linearGradient>
        <linearGradient id="paint2_linear_102_1177" x1="134.164" y1="25.9561" x2="200.206" y2="217.168" gradientUnits="userSpaceOnUse">
            <stop stop-color="white"/>
            <stop offset="1" stop-color="#DADADA" stop-opacity="0.8"/>
        </linearGradient>
    </defs>
<path d="M114.428 130.795H186.191L144.937 191.376L193.172 192.289L91.9293 312.118L116.46 220.758H71.5513L114.428 130.795Z" fill="url(#paint0_linear_102_1177)"/>
<path d="M225.315 194.557H256.822L238.709 221.157L259.887 221.557L215.436 274.168L226.207 234.057H206.489L225.315 194.557Z" fill="url(#paint1_linear_102_1177)"/>
<path d="M215.562 205.765C213.629 205.92 211.676 205.999 209.705 206H72.1812C62.7149 206.035 53.3348 204.201 44.579 200.603C35.8232 197.005 27.8639 191.714 21.1577 185.032C14.4516 178.351 9.13049 170.412 5.49974 161.669C1.86898 152.927 0 143.554 0 134.087C0 124.621 1.86898 115.248 5.49974 106.506C9.13049 97.7633 14.4516 89.8238 21.1577 83.1426C27.8639 76.4614 35.8232 71.17 44.579 67.5718C53.3348 63.9737 62.7149 62.1397 72.1812 62.175H123.456C140.081 25.6 178.368 0 222.941 0C282.768 0 331.268 46.115 331.268 103C331.268 159.885 282.768 206 222.941 206C220.461 206 218.001 205.922 215.562 205.765Z" fill="url(#paint2_linear_102_1177)"/>
<path d="M222.941 205C230.227 205 237.508 204.302 244.581 202.926C251.475 201.585 258.255 199.584 264.733 196.978C271.094 194.42 277.229 191.254 282.967 187.568C288.65 183.917 293.994 179.725 298.851 175.107C303.706 170.49 308.114 165.411 311.952 160.009C315.826 154.557 319.154 148.728 321.842 142.686C324.579 136.532 326.681 130.093 328.09 123.547C329.535 116.831 330.268 109.917 330.268 103C330.268 96.0819 329.535 89.1687 328.09 82.4522C326.681 75.9062 324.579 69.4673 321.842 63.3142C319.154 57.2716 315.826 51.4433 311.952 45.991C308.114 40.5893 303.706 35.5095 298.851 30.8928C293.994 26.2752 288.65 22.0829 282.967 18.4323C277.229 14.7461 271.094 11.5801 264.733 9.02208C258.255 6.41654 251.475 4.41537 244.581 3.07421C237.508 1.69788 230.227 1 222.941 1C201.57 1 180.931 6.95233 163.254 18.2135C154.734 23.6418 147.077 30.1939 140.497 37.6878C133.876 45.2291 128.449 53.6069 124.367 62.5885L124.1 63.1747H123.456H72.1807C62.6072 63.1747 53.3205 65.0495 44.5787 68.747C40.3771 70.5242 36.3245 72.7238 32.5336 75.2849C28.7784 77.8219 25.2472 80.7354 22.038 83.9446C18.8288 87.1538 15.9152 90.685 13.3783 94.4402C10.8172 98.2311 8.61752 102.284 6.84036 106.485C3.14286 115.227 1.26807 124.514 1.26807 134.087C1.26807 143.661 3.14286 152.948 6.84036 161.689C8.61752 165.891 10.8172 169.944 13.3783 173.735C15.9152 177.49 18.8288 181.021 22.038 184.23C25.2472 187.439 28.7784 190.353 32.5336 192.89C36.3245 195.451 40.3771 197.651 44.5787 199.428C53.3205 203.125 62.6072 205 72.1807 205H209.705C211.628 205 213.572 204.922 215.482 204.768L215.554 204.762L215.626 204.767C218.046 204.922 220.507 205 222.941 205ZM222.941 206C220.461 206 218 205.921 215.562 205.765C213.632 205.92 211.676 206 209.705 206H72.1807C32.4646 206 0.268066 173.803 0.268066 134.087C0.268066 94.3713 32.4646 62.1747 72.1807 62.1747H123.456C140.081 25.5954 178.366 0 222.941 0C282.768 0 331.268 46.1151 331.268 103C331.268 159.885 282.768 206 222.941 206Z" fill="white"/>
</svg>
